<svg width="384" height="67" viewBox="0 0 384 67" fill="none" xmlns="http://www.w3.org/2000/svg">
<path d="M345.588 65C341.739 65 338.05 64.4834 334.522 63.4503C330.994 62.3702 328.153 60.9848 326 59.2942L329.78 50.7003C331.842 52.203 334.27 53.4475 337.065 54.4337C339.906 55.3729 342.77 55.8425 345.656 55.8425C347.856 55.8425 349.62 55.6312 350.948 55.2086C352.323 54.7389 353.331 54.105 353.973 53.3066C354.614 52.5083 354.935 51.5925 354.935 50.5594C354.935 49.2445 354.431 48.2113 353.423 47.4599C352.415 46.6616 351.086 46.0276 349.436 45.558C347.787 45.0414 345.954 44.5718 343.938 44.1492C341.968 43.6796 339.975 43.116 337.959 42.4586C335.989 41.8011 334.179 40.9558 332.529 39.9226C330.88 38.8895 329.528 37.5276 328.474 35.837C327.466 34.1464 326.962 31.9862 326.962 29.3563C326.962 26.5387 327.695 23.9793 329.162 21.6782C330.674 19.3301 332.919 17.4751 335.897 16.1133C338.921 14.7044 342.701 14 347.237 14C350.261 14 353.239 14.3757 356.172 15.1271C359.104 15.8315 361.693 16.9116 363.938 18.3674L360.502 27.0318C358.257 25.7169 356.011 24.7541 353.766 24.1436C351.521 23.4862 349.322 23.1575 347.168 23.1575C345.015 23.1575 343.251 23.4157 341.876 23.9323C340.502 24.4489 339.517 25.1298 338.921 25.9751C338.325 26.7735 338.027 27.7127 338.027 28.7928C338.027 30.0608 338.531 31.0939 339.54 31.8923C340.548 32.6436 341.876 33.2541 343.526 33.7238C345.175 34.1934 346.985 34.663 348.955 35.1326C350.971 35.6022 352.964 36.1423 354.935 36.7528C356.951 37.3633 358.784 38.1851 360.433 39.2182C362.082 40.2514 363.411 41.6133 364.419 43.3039C365.473 44.9945 366 47.1312 366 49.7141C366 52.4848 365.244 55.0207 363.732 57.3218C362.22 59.6229 359.952 61.4779 356.928 62.8867C353.95 64.2956 350.17 65 345.588 65Z" fill="white"/>
<path d="M307 64V15H318V64H307Z" fill="white"/>
<path d="M312.5 11C309.462 11 307 8.53757 307 5.5C307 2.46243 309.462 0 312.5 0C315.538 0 318 2.46243 318 5.5C318 8.53757 315.538 11 312.5 11Z" fill="white"/>
<path d="M255 64L275.832 34.95V43.21L255.9 15H268.634L282.407 34.67L277.078 34.74L290.643 15H302.823L283.03 42.72V34.6L304 64H291.058L276.801 43.21H281.922L267.873 64H255Z" fill="white"/>
<path d="M227.172 34.74H250.177V43.56H227.172V34.74ZM227.991 54.9H254V64H217V15H253.113V24.1H227.991V54.9Z" fill="white"/>
<path d="M164 64V15H173.184L201.489 50.28H197.034V15H208V64H198.885L170.511 28.72H174.966V64H164Z" fill="white"/>
<path d="M132.569 65C128.741 65 125.189 64.3785 121.914 63.1354C118.685 61.8923 115.871 60.1427 113.473 57.8867C111.12 55.6308 109.275 52.9834 107.937 49.9448C106.646 46.9061 106 43.5912 106 40C106 36.4088 106.646 33.0939 107.937 30.0552C109.275 27.0166 111.143 24.3692 113.542 22.1133C115.94 19.8573 118.754 18.1077 121.983 16.8646C125.212 15.6215 128.718 15 132.5 15C136.329 15 139.834 15.6215 143.017 16.8646C146.246 18.1077 149.037 19.8573 151.389 22.1133C153.788 24.3692 155.656 27.0166 156.993 30.0552C158.331 33.0479 159 36.3628 159 40C159 43.5912 158.331 46.9291 156.993 50.0138C155.656 53.0525 153.788 55.6998 151.389 57.9558C149.037 60.1657 146.246 61.8923 143.017 63.1354C139.834 64.3785 136.352 65 132.569 65ZM132.5 55.4696C134.668 55.4696 136.651 55.1013 138.45 54.3646C140.295 53.628 141.91 52.5691 143.294 51.1878C144.678 49.8066 145.738 48.1722 146.476 46.2845C147.261 44.3969 147.653 42.302 147.653 40C147.653 37.698 147.261 35.6031 146.476 33.7155C145.738 31.8278 144.678 30.1934 143.294 28.8122C141.956 27.4309 140.365 26.372 138.52 25.6354C136.674 24.8987 134.668 24.5304 132.5 24.5304C130.332 24.5304 128.325 24.8987 126.48 25.6354C124.681 26.372 123.09 27.4309 121.706 28.8122C120.322 30.1934 119.238 31.8278 118.454 33.7155C117.716 35.6031 117.347 37.698 117.347 40C117.347 42.256 117.716 44.3508 118.454 46.2845C119.238 48.1722 120.299 49.8066 121.637 51.1878C123.021 52.5691 124.635 53.628 126.48 54.3646C128.325 55.1013 130.332 55.4696 132.5 55.4696Z" fill="white"/>
<path d="M60 64V15H80.4662C84.6991 15 88.3465 15.7233 91.4086 17.17C94.4706 18.57 96.8347 20.6 98.5008 23.26C100.167 25.92 101 29.0933 101 32.78C101 36.42 100.167 39.57 98.5008 42.23C96.8347 44.89 94.4706 46.9433 91.4086 48.39C88.3465 49.79 84.6991 50.49 80.4662 50.49H66.0791L70.9423 45.38V64H60ZM70.9423 46.64L66.0791 41.25H79.8583C83.2356 41.25 85.7573 40.5033 87.4234 39.01C89.0895 37.5167 89.9226 35.44 89.9226 32.78C89.9226 30.0733 89.0895 27.9733 87.4234 26.48C85.7573 24.9867 83.2356 24.24 79.8583 24.24H66.0791L70.9423 18.85V46.64Z" fill="white"/>
<path d="M9.5 60.5C5.62633 57.2171 2.80033 53.0072 1.26456 48.1673C-0.271201 43.3274 -0.411056 38.1526 0.861054 33.2368C2.13316 28.321 4.76567 23.8636 8.45637 20.3763C21 9 35.5 15.143 36 15.0007L30 20.3763L25 24.5C22.2144 25.0548 18.6917 27.0728 16.6273 29.0236C14.5628 30.9743 13.0903 33.4676 12.3787 36.2174C11.6671 38.9671 11.7453 41.8617 12.6044 44.569C13.4635 47.2763 16.3332 51.1636 18.5 53L9.5 60.5Z" fill="#FD6D02"/>
<path d="M9.4751 60.5405C12.5784 63.1884 16.2415 65.0986 20.189 66.1277C24.1365 67.1568 28.2659 67.278 32.267 66.4823C36.2681 65.6865 40.0369 63.9944 43.2902 61.5331C46.5435 59.0718 49.1968 55.9053 51.0508 52.2715C52.9047 48.6376 53.9112 44.6309 53.9945 40.5523C54.0778 36.4737 53.2358 32.4292 51.5317 28.7227C49.8277 25.0162 47.3059 21.744 44.1558 19.1519C40.5 17 40.5 17 40.5 17L30.5486 25.3208C32.7667 25.8569 34.8344 26.8887 36.5965 28.3386C38.3585 29.7886 39.7691 31.6189 40.7223 33.6922C41.6755 35.7656 42.1465 38.0279 42.0999 40.3094C42.0533 42.5908 41.4904 44.832 40.4533 46.8647C39.4163 48.8974 37.9321 50.6686 36.1123 52.0454C34.2925 53.4221 32.1843 54.3686 29.9463 54.8138C27.7082 55.2589 25.3983 55.1911 23.1902 54.6155C20.9821 54.0398 20.5 54.0009 18.5 53.0009L9.4751 60.5405Z" fill="#2C70B7"/>
</svg>
