<svg xmlns="http://www.w3.org/2000/svg" version="1.1" xmlns:xlink="http://www.w3.org/1999/xlink" xmlns:svgjs="http://svgjs.dev/svgjs" width="1000" height="1000"><style>
    #light-icon {
      display: inline;
    }
    #dark-icon {
      display: none;
    }

    @media (prefers-color-scheme: dark) {
      #light-icon {
        display: none;
      }
      #dark-icon {
        display: inline;
      }
    }
  </style><g id="light-icon"><svg xmlns="http://www.w3.org/2000/svg" version="1.1" xmlns:xlink="http://www.w3.org/1999/xlink" xmlns:svgjs="http://svgjs.dev/svgjs" width="1000" height="1000"><g clip-path="url(#SvgjsClipPath1085)"><rect width="1000" height="1000" fill="#ffffff"></rect><g transform="matrix(0.5031446540880503,0,0,0.5031446540880503,100,100)"><svg xmlns="http://www.w3.org/2000/svg" version="1.1" xmlns:xlink="http://www.w3.org/1999/xlink" xmlns:svgjs="http://svgjs.dev/svgjs" width="1590" height="1590"><svg xmlns="http://www.w3.org/2000/svg" xmlns:xlink="http://www.w3.org/1999/xlink" width="1590" height="1590">
	<path fill="#FEFEFE" transform="scale(1.41964 1.41964)" d="M0 0L1120 0L1120 1120L0 1120L0 0Z"></path>
	<path fill="#1B75BA" transform="scale(1.41964 1.41964)" d="M831.796 204.614C833.562 204.421 835.486 204.126 837.229 204.58C839.662 205.215 841.951 206.972 843.209 209.146C844.426 211.252 844.726 213.667 844.012 215.996C843.092 219 841.04 220.62 838.419 222.13C836.861 222.454 835.268 222.66 833.69 222.358C831.28 221.898 829.086 220.629 827.711 218.57C826.246 216.378 825.874 213.696 826.447 211.143C827.17 207.92 829.173 206.37 831.796 204.614Z"></path>
	<path fill="#1B75BA" transform="scale(1.41964 1.41964)" d="M551.074 521.673C562.179 519.286 572.848 520.366 582.652 526.415C591.336 531.772 598.678 540.575 601.052 550.625C598.008 548.504 590.152 526.782 581.717 528.784C581.458 528.845 580.414 529.264 580.144 529.481C578.744 530.602 578.005 533.019 576.737 534.375C574.743 536.507 572.261 538.429 570.05 540.341C575.378 543.847 582.65 549.114 583.639 555.935C583.767 556.819 583.694 557.755 583.623 558.642C583.438 558.123 583.255 557.604 583.053 557.091C580.246 549.958 575.208 543.769 567.984 540.794C561.489 538.118 555.669 539.018 549.423 541.66C549.651 535.015 550.482 528.301 551.074 521.673Z"></path>
	<path fill="#105F93" transform="scale(1.41964 1.41964)" d="M553.747 778.323C559.432 778.122 567.269 776.765 571.804 780.774C573.029 784.459 573.375 815.765 572.555 819.982C572.075 822.454 570.504 823.283 568.508 824.502C563.351 824.64 554.698 825.971 550.696 822.291C549.234 817.877 548.555 787.09 549.748 782.651C550.359 780.379 551.859 779.469 553.747 778.323Z"></path>
	<path fill="#132F45" transform="scale(1.41964 1.41964)" d="M299.798 547.036C310.507 546.957 321.49 546.373 332.17 546.926C334.587 547.051 339.459 547.519 340.882 549.857C342.076 551.819 342.065 564.41 341.038 566.736C340.147 568.751 338.617 569.481 336.712 570.288C330.963 570.256 302.655 571.078 299.558 569.932C297.981 569.348 297.013 568.335 296.294 566.858C294.333 562.828 294.423 554.798 296.032 550.578C296.78 548.614 297.972 547.883 299.798 547.036Z"></path>
	<path fill="#1B75BA" transform="scale(1.41964 1.41964)" d="M785.515 547.07C790.533 546.878 819.067 546.244 821.815 547.161C823.841 547.836 825.401 549.147 826.308 551.101C828.134 555.04 827.932 562.966 826.256 567.057C825.465 568.987 824.141 569.65 822.366 570.444C815.518 570.42 789.219 571.469 784.676 569.888C783.157 569.36 782.237 568.302 781.599 566.858C779.792 562.774 780.027 554.772 781.623 550.611C782.407 548.567 783.654 547.907 785.515 547.07Z"></path>
	<path fill="#132F45" transform="scale(1.41964 1.41964)" d="M554.201 292.752C558.238 292.654 562.605 292.249 566.61 292.733C568.477 292.959 570.512 293.412 571.705 294.969C573.589 301.208 574.374 329.726 572.196 335.502C571.46 337.454 570.287 338.11 568.522 338.931C564.076 339.043 558.198 339.841 553.918 338.69C552.644 338.347 551.744 338.02 551.109 336.804C548.584 331.968 548.41 302.065 550.313 296.59C551.037 294.507 552.33 293.724 554.201 292.752Z"></path>
	<path fill="#105F93" transform="scale(1.41964 1.41964)" d="M677.351 745.315C677.938 745.301 678.525 745.278 679.111 745.299C680.835 745.36 682.061 745.884 683.206 747.176C686.776 751.203 698.473 772.061 700.498 777.075C701.187 778.779 702.092 781.103 701.726 782.963C701.07 786.29 690.783 790.875 687.719 792.504C686.655 792.522 685.537 792.575 684.492 792.327C682.056 791.747 680.786 789.259 679.588 787.273C676.301 781.823 662.102 760.109 663.502 754.447C666.62 750.26 672.816 747.771 677.351 745.315Z"></path>
	<path fill="#132F45" transform="scale(1.41964 1.41964)" d="M434.576 324.796C435.587 324.737 436.562 324.716 437.561 324.904C439.849 325.335 440.75 326.706 441.959 328.542C444.328 332.143 460.429 358.497 459.317 361.931C457.914 366.261 449.181 369.817 445.353 371.882C444.413 371.919 443.357 372.016 442.426 371.884C440.166 371.565 439.331 370.332 438.16 368.579C434.529 363.137 419.634 339.408 420.677 334.261C423.672 329.86 429.985 327.315 434.576 324.796Z"></path>
	<path fill="#105F93" transform="scale(1.41964 1.41964)" d="M440.914 745.419C445.898 744.996 451.611 748.098 455.477 751.15C457.328 752.611 459.127 754.543 459.141 757.05C459.163 760.829 442.328 789.137 438.884 792.173C438.037 792.319 437.19 792.437 436.328 792.445C433.018 792.476 424.137 787.265 421.794 784.749C420.783 783.663 420.337 782.549 420.515 781.059C421.097 776.191 436.831 748.831 440.914 745.419Z"></path>
	<path fill="#132F45" transform="scale(1.41964 1.41964)" d="M336.801 417.784C337.529 417.747 338.327 417.676 339.058 417.755C343.444 418.227 371.409 434.498 373.955 438.031C374.675 439.029 374.711 440.034 374.516 441.23C373.757 445.891 369.033 453.796 365.226 456.589C364.549 456.647 363.814 456.734 363.131 456.675C359.209 456.337 330.892 439.873 328.266 436.59C327.487 435.617 327.406 434.686 327.564 433.462C328.172 428.754 333.062 420.641 336.801 417.784Z"></path>
	<path fill="#1B75BA" transform="scale(1.41964 1.41964)" d="M757.416 660.615Q758.602 660.551 759.783 660.676C763.964 661.14 791.899 677.785 794.452 681.113C794.83 682.565 794.951 683.637 794.611 685.119C793.609 689.494 789.262 697.046 785.364 699.538C784.553 699.55 784.264 699.57 783.406 699.507C779.031 699.186 751.611 682.812 748.468 679.285C748.071 678.189 747.868 677.337 748.012 676.181C748.606 671.381 753.51 663.481 757.416 660.615Z"></path>
	<path fill="#E67102" transform="scale(1.41964 1.41964)" d="M361.284 660.53C362.132 660.508 363.128 660.428 363.96 660.591C366.896 661.165 369.372 665.132 370.907 667.503C372.754 670.356 375.293 674.969 374.164 678.435C372.956 682.149 345.181 696.929 340.294 699.539C339.578 699.524 338.678 699.559 337.965 699.4C334.975 698.732 332.551 694.793 330.984 692.352C329.169 689.525 326.711 685.051 327.867 681.594C329.377 677.079 355.353 663.903 361.284 660.53Z"></path>
	<path fill="#1B75BA" transform="scale(1.41964 1.41964)" d="M850.357 216.444C856.156 220.64 861.585 227.42 866.703 232.544L905.512 271.424C901.401 275.329 897.443 279.416 893.431 283.424C889.76 281.771 844.962 235.575 838.078 228.677C842.228 224.664 846.272 220.524 850.357 216.444Z"></path>
	<path fill="#105F93" transform="scale(1.41964 1.41964)" d="M583.623 558.642C583.694 557.755 583.767 556.819 583.639 555.935C582.65 549.114 575.378 543.847 570.05 540.341C572.261 538.429 574.743 536.507 576.737 534.375C578.005 533.019 578.744 530.602 580.144 529.481C580.414 529.264 581.458 528.845 581.717 528.784C590.152 526.782 598.008 548.504 601.052 550.625C604.128 560.128 602.986 570.592 598.511 579.472C593.432 589.553 583.907 598.122 573.137 601.669C570.66 602.485 568.08 603.056 565.511 603.489C565.697 597.14 566.579 590.65 567.247 584.33C571.568 582.937 575.778 580.66 578.755 577.161C583.278 571.845 584.244 565.372 583.623 558.642Z"></path>
	<defs>
		<linearGradient id="gradient_0" gradientUnits="userSpaceOnUse" x1="520.74347" y1="554.80688" x2="573.61884" y2="571.93872">
			<stop offset="0" stop-color="#F17D00"></stop>
			<stop offset="1" stop-color="#CC320E"></stop>
		</linearGradient>
	<clipPath id="SvgjsClipPath1085"><rect width="1000" height="1000" x="0" y="0" rx="300" ry="300"></rect></clipPath></defs>
	<path fill="url(#gradient_0)" transform="scale(1.41964 1.41964)" d="M544.926 523.805C544.43 530.614 544.303 537.826 543.126 544.534C542 550.946 537.632 555.01 538.268 561.918C538.913 568.934 542.673 575.066 548.152 579.392C554.05 584.048 560.007 585.093 567.247 584.33C566.579 590.65 565.697 597.14 565.511 603.489C560.144 603.657 555.452 603.633 550.214 602.196C539.372 599.221 529.881 591.49 524.453 581.682Q523.98 580.823 523.55 579.942Q523.12 579.061 522.734 578.159Q522.347 577.258 522.005 576.339Q521.664 575.42 521.367 574.485Q521.071 573.55 520.821 572.602Q520.571 571.654 520.368 570.695Q520.164 569.736 520.008 568.767Q519.852 567.799 519.744 566.825Q519.636 565.85 519.575 564.872Q519.515 563.893 519.502 562.912Q519.49 561.932 519.526 560.952Q519.561 559.972 519.645 558.995Q519.729 558.018 519.86 557.046Q519.992 556.075 520.17 555.11Q520.349 554.146 520.575 553.192Q520.801 552.238 521.074 551.296C524.715 538.72 533.681 529.927 544.926 523.805Z"></path>
	<path fill="#1B75BA" transform="scale(1.41964 1.41964)" d="M901.855 172.327C904.536 174.035 907.227 182.541 908.594 185.665C899.096 188.705 890.828 192.656 885.677 201.683C884.559 203.644 884.21 205.949 884.905 208.115C885.511 209.999 886.546 211.711 888.498 212.438C895.15 214.912 910.963 202.713 918.257 200.273C923.728 198.443 929.677 198.262 934.866 201.047C940.261 203.942 944.031 210.002 945.618 215.779C947.341 222.052 945.441 228.938 942.314 234.456C935.383 246.686 922.92 254.365 909.667 257.959L908.642 257.912C905.896 255.977 903.606 247.638 902.307 244.303C912.296 242.36 922.17 237.772 928.187 229.227C929.811 226.921 931.219 224.063 930.534 221.192C930.083 219.304 928.636 217.528 926.884 216.701C920.276 213.58 905.555 225.435 898.811 227.982C893.306 230.061 886.732 230.875 881.261 228.231C875.962 225.67 871.403 219.189 869.645 213.613C867.691 207.414 869.346 200.567 872.361 194.999C878.5 183.66 889.671 175.864 901.855 172.327Z"></path>
	<path fill="#1B75BA" transform="scale(1.41964 1.41964)" d="M832.864 234.007C834.873 236.558 840.42 272.416 841.532 278.595C856.614 280.386 874.433 284.365 889.515 287.355L875.176 301.624C864.877 299.011 854.229 297.351 843.841 295.046Q847.006 310.758 850.379 326.428L838.673 338.119C837.929 338.958 837.43 339.396 836.401 339.852C834.168 335.392 829.029 300.963 827.67 293.309C812.626 289.964 797.263 287.791 782.16 284.66L796.098 270.722Q810.978 273.494 825.815 276.484Q822.759 261.673 820.009 246.802L832.864 234.007Z"></path>
	<path fill="#1B75BA" transform="scale(1.41964 1.41964)" d="M779.282 287.548C782.993 290.379 786.413 294.538 789.75 297.859L762.192 325.384L773.991 337.153L798.234 312.881L808.245 322.895L783.98 347.164L796.52 359.711L823.788 332.352C824.518 331.602 824.034 331.886 825.372 331.782C828.992 334.586 832.148 338.206 835.36 341.472L794.468 382.339L739.486 327.356L779.282 287.548Z"></path>
	<path fill="#1B75BA" transform="scale(1.41964 1.41964)" d="M730.147 336.691C733.566 338.368 778.572 384.697 785.357 391.496L775.191 401.647L716.341 394.571C726.801 405.964 738.296 416.666 749.243 427.609L737.125 439.67C732.939 437.063 725.654 428.556 721.831 424.73L681.978 384.819L692.255 374.604C698.136 375.746 704.34 376.16 710.296 376.875C723.974 378.517 737.712 379.954 751.34 381.966L718.055 348.701C722.125 344.742 726.119 340.694 730.147 336.691Z"></path>
	<path fill="#1B75BA" transform="scale(1.41964 1.41964)" d="M612.175 463.832C612.386 463.819 612.598 463.801 612.81 463.792C621.15 463.43 628.24 465.858 634.323 471.711C639.697 476.881 643.224 483.925 643.133 491.473C642.955 506.231 630.84 515.889 621.222 525.366L636.358 540.503L623.971 552.792L620.314 549.135L568.992 497.811C581.272 485.739 594.863 467.529 612.175 463.832Z"></path>
	<path fill="#FEFEFE" transform="scale(1.41964 1.41964)" d="M609.942 480.732C611.828 480.544 613.759 480.28 615.612 480.81C619.433 481.901 623.19 484.806 625.07 488.319C626.606 491.191 626.807 494.328 625.704 497.384C624.185 501.591 614.512 512.85 610.465 514.628L591.965 496.132C597.485 490.498 602.736 484.194 609.942 480.732Z"></path>
	<path fill="#1B75BA" transform="scale(1.41964 1.41964)" d="M670.721 405.925C679.801 405.412 688.075 406.692 695.932 411.54C705.515 417.453 712.771 427.257 715.268 438.263Q715.477 439.194 715.64 440.135Q715.803 441.075 715.918 442.022Q716.034 442.97 716.102 443.922Q716.171 444.874 716.191 445.828Q716.212 446.782 716.185 447.736Q716.158 448.69 716.084 449.641Q716.009 450.593 715.888 451.539Q715.766 452.486 715.597 453.425Q715.428 454.365 715.213 455.294Q714.998 456.224 714.736 457.142Q714.475 458.06 714.168 458.964Q713.861 459.867 713.51 460.755Q713.158 461.642 712.763 462.511Q712.367 463.379 711.929 464.227Q711.491 465.075 711.011 465.9Q710.531 466.725 710.011 467.525C703.405 477.833 693.665 483.497 681.909 486.002C671.841 486.922 662.438 484.933 654.076 479.106C645.072 472.831 638.286 463.131 636.357 452.252Q636.188 451.311 636.065 450.362Q635.943 449.414 635.867 448.46Q635.791 447.507 635.763 446.551Q635.734 445.595 635.752 444.639Q635.77 443.683 635.836 442.729Q635.901 441.775 636.013 440.825Q636.125 439.875 636.284 438.932Q636.443 437.989 636.648 437.055Q636.853 436.121 637.104 435.198Q637.355 434.275 637.65 433.366Q637.946 432.456 638.286 431.563Q638.627 430.669 639.01 429.793Q639.394 428.917 639.821 428.061Q640.247 427.205 640.715 426.371Q641.183 425.537 641.692 424.727Q642.2 423.917 642.748 423.133C649.558 413.386 659.137 407.894 670.721 405.925Z"></path>
	<path fill="#FEFEFE" transform="scale(1.41964 1.41964)" d="M670.335 422.264C675.645 421.721 680.591 422.595 685.286 425.178C691.887 428.81 697.136 435.22 699.037 442.535Q699.177 443.059 699.291 443.59Q699.404 444.121 699.492 444.656Q699.578 445.192 699.639 445.732Q699.699 446.271 699.732 446.813Q699.765 447.354 699.771 447.897Q699.777 448.44 699.756 448.982Q699.735 449.525 699.687 450.065Q699.638 450.606 699.563 451.143Q699.488 451.681 699.386 452.214Q699.284 452.747 699.156 453.274Q699.027 453.802 698.873 454.322Q698.718 454.842 698.538 455.354Q698.357 455.866 698.151 456.368Q697.946 456.87 697.715 457.362Q697.484 457.853 697.229 458.332Q696.974 458.811 696.696 459.277C693.258 464.965 687.795 468.051 681.54 469.685C675.944 470.163 670.881 469.237 665.992 466.369C659.654 462.651 654.537 456.293 652.779 449.107Q652.647 448.585 652.541 448.058Q652.435 447.531 652.355 446.999Q652.275 446.466 652.222 445.931Q652.169 445.396 652.142 444.858Q652.115 444.321 652.115 443.783Q652.116 443.245 652.142 442.708Q652.169 442.17 652.222 441.635Q652.276 441.099 652.356 440.567Q652.436 440.035 652.542 439.508Q652.648 438.981 652.78 438.459Q652.913 437.938 653.071 437.423Q653.229 436.909 653.412 436.403Q653.595 435.897 653.803 435.401Q654.012 434.905 654.244 434.42Q654.477 433.935 654.733 433.462Q654.99 432.989 655.269 432.529C658.688 426.955 664.126 423.815 670.335 422.264Z"></path>
	<defs>
		<linearGradient id="gradient_1" gradientUnits="userSpaceOnUse" x1="435.85266" y1="267.75595" x2="523.547" y2="683.78662">
			<stop offset="0" stop-color="#132D43"></stop>
			<stop offset="1" stop-color="#124E74"></stop>
		</linearGradient>
	</defs>
	<path fill="url(#gradient_1)" transform="scale(1.41964 1.41964)" d="M299.389 729.053C293.41 721.511 288.509 712.022 284 703.522Q281.807 699.377 279.74 695.169Q277.673 690.96 275.733 686.691Q273.793 682.422 271.983 678.097Q270.173 673.771 268.493 669.393Q266.813 665.015 265.266 660.589Q263.719 656.163 262.306 651.692Q260.892 647.221 259.614 642.709Q258.336 638.198 257.194 633.65Q256.052 629.103 255.047 624.523Q254.043 619.942 253.176 615.334Q252.309 610.726 251.582 606.094Q250.854 601.462 250.266 596.81Q249.678 592.158 249.23 587.49Q248.783 582.823 248.475 578.144Q248.168 573.465 248.002 568.779Q247.835 564.093 247.81 559.404Q247.804 555.634 247.89 551.866Q247.975 548.097 248.152 544.331Q248.329 540.566 248.598 536.806Q248.866 533.046 249.226 529.293Q249.585 525.541 250.036 521.798Q250.487 518.055 251.028 514.325Q251.57 510.594 252.201 506.878Q252.833 503.161 253.555 499.461Q254.277 495.761 255.088 492.08Q255.9 488.399 256.8 484.738Q257.701 481.078 258.69 477.44Q259.679 473.803 260.756 470.19Q261.834 466.578 262.998 462.992Q264.163 459.407 265.414 455.851Q266.665 452.295 268.003 448.771Q269.34 445.246 270.762 441.755Q272.185 438.264 273.692 434.809Q275.199 431.353 276.789 427.935Q278.379 424.517 280.052 421.139Q281.725 417.761 283.479 414.424Q285.233 411.088 287.068 407.795Q288.903 404.502 290.817 401.254Q292.731 398.007 294.724 394.806Q296.716 391.606 298.786 388.456Q300.855 385.305 303.001 382.205Q305.146 379.106 307.366 376.059Q309.586 373.012 311.88 370.021Q314.173 367.029 316.538 364.094Q318.904 361.158 321.34 358.281Q323.776 355.405 326.281 352.588Q328.786 349.771 331.358 347.015Q333.931 344.26 336.57 341.568Q339.222 338.84 341.941 336.178Q344.66 333.516 347.444 330.922Q350.228 328.328 353.075 325.804Q355.922 323.279 358.83 320.826Q361.739 318.373 364.707 315.992Q367.675 313.611 370.701 311.305Q373.727 308.998 376.81 306.767Q379.892 304.535 383.028 302.381Q386.164 300.227 389.353 298.15Q392.542 296.074 395.78 294.077Q399.019 292.08 402.307 290.164Q405.594 288.248 408.927 286.413Q412.261 284.579 415.639 282.827Q419.017 281.076 422.437 279.408Q425.857 277.74 429.317 276.158Q432.777 274.575 436.276 273.078Q439.774 271.582 443.308 270.172Q446.842 268.762 450.41 267.44Q453.978 266.118 457.578 264.884Q461.177 263.651 464.806 262.506Q468.435 261.362 472.091 260.308Q475.747 259.253 479.428 258.29Q483.109 257.326 486.812 256.454Q490.516 255.581 494.24 254.801Q497.964 254.02 501.706 253.331Q505.449 252.643 509.207 252.047Q512.965 251.451 516.736 250.948Q520.508 250.445 524.291 250.036Q528.074 249.626 531.866 249.31Q535.657 248.994 539.456 248.772Q543.255 248.55 547.057 248.422Q550.86 248.293 554.665 248.259Q558.598 248.215 562.532 248.272Q566.465 248.329 570.395 248.487Q574.326 248.644 578.251 248.902Q582.176 249.161 586.093 249.519Q590.011 249.878 593.917 250.337Q597.824 250.795 601.718 251.354Q605.612 251.913 609.49 252.571Q613.368 253.229 617.228 253.986Q621.088 254.744 624.928 255.6Q628.767 256.455 632.583 257.409Q636.399 258.363 640.19 259.414Q643.981 260.466 647.743 261.614Q651.505 262.762 655.237 264.006Q658.969 265.25 662.668 266.589Q666.366 267.928 670.029 269.361Q673.693 270.794 677.318 272.321C682 274.262 691.354 277.113 694.524 281.009C695.616 282.351 695.983 283.995 695.675 285.695C694.969 289.591 685.317 298.43 681.935 300.597C679.362 302.246 676.881 302.614 673.893 302.107C666.329 300.823 658.288 296.371 651.009 293.668Q637.483 288.764 623.482 285.45Q620.142 284.644 616.784 283.919Q613.426 283.195 610.051 282.554Q606.676 281.912 603.286 281.353Q599.896 280.795 596.494 280.32Q593.092 279.845 589.678 279.453Q586.265 279.062 582.844 278.755Q579.422 278.447 575.994 278.224Q572.566 278.001 569.133 277.861Q565.7 277.722 562.265 277.668Q558.83 277.613 555.395 277.642Q551.96 277.672 548.526 277.786Q545.092 277.9 541.663 278.098Q538.233 278.296 534.809 278.579Q531.385 278.861 527.969 279.228Q524.553 279.594 521.148 280.044Q517.742 280.494 514.348 281.028Q510.954 281.562 507.575 282.178Q504.195 282.795 500.832 283.495Q497.468 284.195 494.123 284.977Q490.778 285.759 487.453 286.622Q484.127 287.486 480.825 288.432Q477.522 289.377 474.243 290.403Q470.964 291.429 467.712 292.536Q464.46 293.642 461.235 294.828Q458.011 296.014 454.817 297.278Q451.623 298.543 448.46 299.886Q445.298 301.229 442.17 302.648Q439.042 304.068 435.949 305.565Q432.857 307.061 429.802 308.633Q426.747 310.205 423.732 311.851Q420.717 313.498 417.743 315.218Q414.769 316.938 411.838 318.73Q408.886 320.537 405.979 322.416Q403.073 324.295 400.213 326.245Q397.353 328.194 394.542 330.214Q391.731 332.233 388.97 334.321Q386.21 336.409 383.501 338.564Q380.793 340.719 378.138 342.939Q375.484 345.16 372.884 347.445Q370.285 349.731 367.742 352.079Q365.2 354.428 362.716 356.838Q360.232 359.248 357.807 361.719Q355.383 364.189 353.021 366.718Q350.658 369.247 348.358 371.834Q346.058 374.42 343.822 377.063Q341.586 379.705 339.416 382.401Q337.246 385.097 335.143 387.846Q333.039 390.595 331.004 393.394Q328.969 396.194 327.003 399.043Q325.037 401.891 323.142 404.787Q321.247 407.684 319.423 410.625Q317.6 413.567 315.849 416.553Q314.098 419.538 312.421 422.566Q310.744 425.594 309.142 428.662Q307.54 431.73 306.013 434.836Q304.487 437.943 303.038 441.086Q301.588 444.229 300.216 447.406Q298.844 450.584 297.551 453.794Q296.257 457.005 295.043 460.246Q293.828 463.487 292.694 466.757Q291.56 470.027 290.506 473.324Q289.452 476.621 288.48 479.943Q287.507 483.264 286.617 486.609Q285.726 489.954 284.918 493.319Q284.216 496.257 283.578 499.21Q282.939 502.162 282.365 505.128Q281.791 508.093 281.281 511.071Q280.771 514.048 280.325 517.036Q279.88 520.023 279.499 523.02Q279.118 526.017 278.802 529.021Q278.486 532.025 278.235 535.035Q277.984 538.045 277.798 541.06Q277.612 544.075 277.492 547.094Q277.371 550.112 277.316 553.132Q277.26 556.152 277.27 559.173Q277.28 562.194 277.355 565.214Q277.431 568.233 277.571 571.251Q277.712 574.268 277.918 577.282Q278.123 580.296 278.394 583.304Q278.665 586.313 279.001 589.315Q279.337 592.317 279.737 595.311Q280.138 598.305 280.603 601.29Q281.069 604.274 281.598 607.248Q282.128 610.222 282.722 613.184Q283.316 616.146 283.973 619.094Q284.631 622.042 285.353 624.975Q286.074 627.909 286.859 630.826Q287.643 633.743 288.491 636.642Q289.338 639.542 290.248 642.422Q291.158 645.302 292.13 648.162Q293.102 651.022 294.136 653.861Q295.169 656.699 296.264 659.515Q297.359 662.33 298.514 665.121Q299.669 667.912 300.885 670.677Q302.1 673.443 303.375 676.181Q304.65 678.92 305.984 681.63C313.308 696.464 321.615 708.275 330.156 722.189C327.106 721.697 325.841 714.908 322.79 716.629C322.636 715.801 322.574 715.231 322.576 714.411C320.236 715.464 319.593 717.114 318.719 719.432C316.994 724.004 316.806 725.617 312.608 728.676C310.976 728.773 308.683 729.122 307.125 728.75C304.339 728.085 302.474 724.958 299.609 726.753L299.389 729.053Z"></path>
	<defs>
		<linearGradient id="gradient_2" gradientUnits="userSpaceOnUse" x1="302.12491" y1="643.67871" x2="862.98718" y2="663.94928">
			<stop offset="0" stop-color="#115279"></stop>
			<stop offset="1" stop-color="#1676B7"></stop>
		</linearGradient>
	</defs>
	<path fill="url(#gradient_2)" transform="scale(1.41964 1.41964)" d="M330.156 722.189C334.344 726.435 337.762 731.741 341.552 736.37Q351.729 748.88 363.409 759.999Q365.812 762.314 368.27 764.571Q370.728 766.829 373.238 769.027Q375.748 771.226 378.31 773.364Q380.872 775.503 383.484 777.58Q386.095 779.657 388.755 781.672Q391.415 783.687 394.123 785.638Q396.83 787.589 399.582 789.476Q402.335 791.363 405.131 793.184Q407.928 795.004 410.766 796.759Q413.605 798.513 416.485 800.199Q419.364 801.886 422.283 803.503Q425.201 805.121 428.158 806.669Q431.114 808.218 434.106 809.695Q437.098 811.173 440.124 812.58Q443.15 813.986 446.208 815.32Q449.267 816.655 452.356 817.917Q455.446 819.178 458.564 820.366Q461.682 821.555 464.828 822.669Q467.974 823.782 471.145 824.822Q474.316 825.861 477.511 826.825Q480.705 827.788 483.922 828.676Q487.139 829.564 490.376 830.375Q493.613 831.187 496.868 831.921Q500.123 832.656 503.395 833.313Q506.666 833.97 509.952 834.55Q513.239 835.13 516.538 835.631Q519.837 836.133 523.147 836.556Q526.457 836.979 529.776 837.324Q533.095 837.669 536.422 837.935Q539.748 838.201 543.08 838.389Q546.411 838.576 549.747 838.684Q553.082 838.793 556.419 838.822Q559.86 838.837 563.3 838.768Q566.74 838.699 570.177 838.545Q573.614 838.391 577.047 838.153Q580.479 837.915 583.905 837.593Q587.331 837.271 590.747 836.865Q594.164 836.459 597.57 835.969Q600.975 835.479 604.368 834.906Q607.761 834.333 611.138 833.677Q614.516 833.021 617.876 832.282Q621.237 831.543 624.578 830.721Q627.919 829.9 631.24 828.997Q634.56 828.095 637.857 827.111Q641.154 826.127 644.426 825.062Q647.698 823.997 650.942 822.853Q654.187 821.708 657.403 820.484Q660.618 819.26 663.803 817.958Q666.988 816.656 670.14 815.276Q673.292 813.895 676.409 812.438Q679.526 810.981 682.606 809.448Q685.686 807.915 688.728 806.307Q691.77 804.699 694.771 803.017Q697.773 801.334 700.732 799.579Q703.691 797.824 706.606 795.996Q709.522 794.169 712.391 792.27Q715.261 790.372 718.083 788.403Q720.905 786.435 723.678 784.398Q726.451 782.361 729.173 780.257Q731.895 778.152 734.565 775.982Q737.235 773.811 739.85 771.576Q742.466 769.34 745.026 767.042Q747.586 764.743 750.089 762.382Q752.592 760.021 755.036 757.599Q757.481 755.18 759.867 752.703Q762.253 750.225 764.577 747.689Q766.901 745.154 769.162 742.563Q771.424 739.971 773.622 737.325Q775.819 734.679 777.951 731.98Q780.083 729.281 782.148 726.531Q784.214 723.781 786.211 720.98Q788.209 718.18 790.137 715.332Q792.065 712.484 793.924 709.59Q795.782 706.695 797.569 703.757Q799.355 700.818 801.07 697.836Q802.784 694.854 804.425 691.831Q806.066 688.808 807.632 685.746Q809.199 682.684 810.69 679.585Q812.181 676.485 813.596 673.35Q815.01 670.215 816.348 667.046Q817.686 663.878 818.945 660.677Q820.205 657.477 821.386 654.246Q822.568 651.016 823.669 647.758Q824.771 644.499 825.793 641.215Q826.814 637.931 827.755 634.623Q828.696 631.314 829.556 627.984Q830.416 624.654 831.194 621.303Q831.972 617.953 832.668 614.585Q833.364 611.216 833.977 607.832Q834.591 604.448 835.121 601.049Q835.651 597.651 836.098 594.241Q836.545 590.83 836.909 587.41Q837.272 583.99 837.552 580.562Q837.832 577.134 838.027 573.7Q838.223 570.266 838.335 566.828Q838.446 563.39 838.474 559.951Q838.527 546.239 837.27 532.585Q836.013 518.931 833.458 505.459C831.929 497.216 824.266 473.876 824.739 468.08C825.091 463.782 828.654 460.338 831.541 457.459C834.258 454.751 839.486 448.201 843.391 448.194C845.201 448.19 846.699 449.27 847.801 450.611C852.012 455.733 853.993 466.274 855.77 472.741C867.088 513.934 870.874 556.138 865.233 598.599Q864.727 602.398 864.128 606.183Q863.529 609.969 862.837 613.738Q862.145 617.508 861.36 621.259Q860.575 625.01 859.698 628.741Q858.821 632.472 857.852 636.18Q856.883 639.888 855.823 643.571Q854.764 647.254 853.613 650.91Q852.463 654.566 851.223 658.192Q849.983 661.818 848.654 665.413Q847.325 669.008 845.908 672.569Q844.491 676.13 842.987 679.654Q841.482 683.179 839.891 686.666Q838.301 690.153 836.624 693.599Q834.948 697.046 833.188 700.45Q831.427 703.854 829.583 707.214Q827.739 710.574 825.813 713.887Q823.886 717.2 821.879 720.465Q819.872 723.73 817.785 726.944Q815.698 730.158 813.532 733.32Q811.366 736.482 809.124 739.59Q806.881 742.698 804.562 745.749Q802.243 748.801 799.85 751.794Q797.457 754.787 794.99 757.721Q792.524 760.654 789.986 763.526Q787.448 766.398 784.84 769.206Q782.233 772.015 779.556 774.758Q776.88 777.502 774.137 780.178Q771.394 782.855 768.586 785.463Q765.778 788.071 762.906 790.609Q760.035 793.147 757.102 795.614Q754.168 798.081 751.175 800.474Q748.182 802.868 745.131 805.187Q742.117 807.476 739.048 809.69Q735.98 811.904 732.858 814.043Q729.736 816.182 726.562 818.244Q723.389 820.305 720.167 822.289Q716.944 824.272 713.673 826.177Q710.403 828.081 707.087 829.904Q703.771 831.728 700.412 833.47Q697.052 835.212 693.651 836.872Q690.25 838.531 686.81 840.107Q683.369 841.683 679.891 843.174Q676.413 844.665 672.9 846.071Q669.386 847.477 665.839 848.796Q662.293 850.116 658.715 851.348Q655.137 852.58 651.53 853.725Q647.922 854.869 644.289 855.925Q640.655 856.981 636.996 857.948Q633.337 858.915 629.656 859.792Q625.975 860.669 622.273 861.456Q618.572 862.243 614.852 862.939Q611.132 863.635 607.397 864.24Q603.661 864.845 599.912 865.359Q596.163 865.872 592.402 866.294Q588.641 866.716 584.871 867.046Q581.102 867.375 577.325 867.613Q573.548 867.85 569.766 867.995Q565.985 868.14 562.201 868.193Q558.417 868.245 554.633 868.205Q550.849 868.165 547.067 868.033Q543.285 867.9 539.508 867.676Q535.73 867.451 531.959 867.134Q528.188 866.816 524.426 866.407Q520.664 865.998 516.913 865.497Q513.107 864.982 509.315 864.374Q505.523 863.766 501.747 863.064Q497.97 862.362 494.213 861.568Q490.455 860.773 486.718 859.886Q482.982 858.999 479.268 858.02Q475.554 857.041 471.865 855.971Q468.177 854.9 464.516 853.739Q460.855 852.578 457.223 851.327Q453.592 850.077 449.993 848.736Q446.393 847.396 442.828 845.968Q439.263 844.539 435.734 843.023Q432.205 841.507 428.715 839.905Q425.225 838.302 421.775 836.614Q418.325 834.926 414.918 833.153Q411.511 831.381 408.148 829.524Q404.786 827.668 401.47 825.729Q398.155 823.791 394.888 821.771Q391.621 819.751 388.405 817.652Q385.19 815.552 382.026 813.373Q378.863 811.195 375.755 808.939Q372.646 806.683 369.595 804.352Q366.543 802.02 363.549 799.614Q360.556 797.207 357.623 794.728Q354.69 792.248 351.818 789.697Q348.947 787.146 346.14 784.525Q343.333 781.904 340.591 779.214Q337.849 776.525 335.175 773.769Q332.5 771.012 329.894 768.191Q327.288 765.369 324.753 762.484Q322.217 759.599 319.754 756.653Q317.29 753.706 314.9 750.7Q312.51 747.693 310.195 744.629C306.725 740.074 301.609 734.248 299.389 729.053L299.609 726.753C302.474 724.958 304.339 728.085 307.125 728.75C308.683 729.122 310.976 728.773 312.608 728.676C316.806 725.617 316.994 724.004 318.719 719.432C319.593 717.114 320.236 715.464 322.576 714.411C322.574 715.231 322.636 715.801 322.79 716.629C325.841 714.908 327.106 721.697 330.156 722.189Z"></path>
	<path fill="#132F45" transform="scale(1.41964 1.41964)" d="M856.414 24.7532C907.427 23.9606 958.582 24.7352 1009.61 24.7357C1023.48 24.7358 1095.89 23.4988 1101.8 25.6465C1103.91 26.4165 1106.48 27.9091 1107.39 30.0497C1108.67 33.0459 1109.07 36.6769 1109.18 39.9223C1109.64 53.9681 1109.23 68.1596 1109.23 82.2177L1109.2 165.159L1109.21 235.96C1109.24 248.806 1109.72 261.845 1109.2 274.669C1109.11 276.967 1108.91 279.148 1107.87 281.235C1106.04 284.896 1102.64 286.319 1098.96 287.537C1096.65 287.537 1094.47 287.357 1092.35 286.387C1087.01 283.946 1049.13 244.284 1042.57 237.724L923.871 118.996L877.59 72.7616C869.248 64.4451 860.632 56.279 852.54 47.723C850.583 45.6536 848.206 43.2863 847.225 40.5793C846.131 37.5634 846.327 34.0566 847.814 31.2138C849.723 27.5669 852.626 25.9344 856.414 24.7532Z"></path>
	<defs>
		<linearGradient id="gradient_3" gradientUnits="userSpaceOnUse" x1="154.42838" y1="791.43896" x2="368.45261" y2="189.49677">
			<stop offset="0" stop-color="#084963"></stop>
			<stop offset="1" stop-color="#147ABE"></stop>
		</linearGradient>
	</defs>
	<path fill="url(#gradient_3)" transform="scale(1.41964 1.41964)" d="M234.036 130.329L234.099 131.448C229.68 135.272 217.839 142.659 215.567 147.153L215.688 147.663C217.086 147.643 219.025 147.148 220.152 146.245C220.701 145.804 220.525 145.737 220.925 145.237C222.099 143.771 225.38 143.686 227.14 143.591C227.914 142.899 229.862 140.796 230.837 140.785C234.423 140.742 240.041 146.566 242.279 149.251C246.299 154.074 250.561 165.088 255.392 168.215C258.411 170.169 278.903 192.238 281.534 195.979C284.178 199.739 285.675 203.955 288.045 207.728C289.004 209.255 291.263 211.123 291.598 212.841C291.998 214.89 291.97 217.075 292.187 219.158L290.815 218.621L290.355 219.378C290.312 219.237 290.288 219.088 290.225 218.954C289.863 218.186 289.345 217.942 288.687 217.446C283.444 213.486 275.166 205.409 271.68 199.881L270.62 199.603L270.229 198.394L267.978 197.376L267.724 196.399L267.487 197.185C268.247 198.031 268.915 198.808 269.849 199.468L269.428 199.728L270.404 200.11C273.319 203.826 276.677 207.949 280.348 210.916C284.612 214.361 286.651 220.194 290.476 224.032C298.437 232.02 304.994 228.547 309.65 242.257C310.601 245.057 311.737 248.403 311.938 251.355C311.993 252.161 311.907 253 311.837 253.803C312.216 254.538 312.561 255.366 313.038 256.039C235.19 323.216 184.612 415.092 177.074 518.403C169.927 616.346 205.498 710.516 269.319 784.256Q274.088 789.825 279.084 795.191Q284.079 800.558 289.292 805.714Q294.505 810.869 299.927 815.805Q305.349 820.741 310.97 825.448Q316.591 830.156 322.402 834.627Q328.212 839.098 334.203 843.325Q340.193 847.552 346.354 851.528Q352.514 855.504 358.833 859.222C369.463 865.488 380.49 870.876 391.339 876.726Q386.15 875.04 381.003 873.228Q375.857 871.415 370.757 869.476Q365.657 867.537 360.606 865.474Q355.555 863.41 350.556 861.223Q345.558 859.035 340.614 856.726Q335.671 854.416 330.786 851.986Q325.901 849.555 321.077 847.006Q316.253 844.456 311.494 841.788Q306.734 839.12 302.042 836.336Q297.349 833.552 292.726 830.654Q288.104 827.755 283.554 824.744Q279.004 821.733 274.529 818.61Q270.055 815.488 265.658 812.257Q261.262 809.025 256.946 805.687Q252.631 802.348 248.398 798.904Q244.166 795.461 240.02 791.914Q235.874 788.367 231.816 784.719Q227.758 781.072 223.792 777.325Q219.825 773.579 215.952 769.736Q212.078 765.893 208.3 761.956Q204.523 758.019 200.843 753.991Q197.163 749.962 193.583 745.844Q190.004 741.726 186.527 737.522Q183.05 733.317 179.677 729.028Q176.304 724.739 173.038 720.368Q169.772 715.998 166.614 711.548Q163.456 707.098 160.409 702.573Q157.361 698.047 154.426 693.447Q151.491 688.848 148.67 684.177Q145.849 679.507 143.144 674.769Q140.438 670.03 137.85 665.227Q135.262 660.424 132.793 655.558Q130.323 650.666 127.975 645.714Q125.627 640.763 123.402 635.755Q121.177 630.747 119.076 625.685Q116.975 620.624 114.999 615.512Q113.023 610.401 111.174 605.242Q109.325 600.083 107.604 594.88Q105.883 589.677 104.291 584.433Q102.699 579.19 101.236 573.908Q99.7736 568.627 98.4418 563.311Q97.11 557.995 95.9098 552.648Q94.7095 547.301 93.6415 541.926Q92.5734 536.551 91.6383 531.151Q90.7032 525.751 89.9015 520.33Q89.0998 514.909 88.4321 509.47Q87.7644 504.03 87.231 498.576Q86.6977 493.122 86.299 487.656Q85.9003 482.191 85.6366 476.717Q85.3728 471.243 85.2442 465.764Q85.1155 460.286 85.122 454.806Q85.1285 449.326 85.2701 443.847Q85.4118 438.369 85.6885 432.896Q85.9652 427.423 86.3768 421.958Q86.7885 416.493 87.3347 411.04Q87.881 405.588 88.5616 400.15Q89.2422 394.712 90.0567 389.293Q90.8712 383.874 91.8191 378.476Q92.767 373.078 93.8478 367.706Q94.9285 362.333 96.1415 356.989Q97.3544 351.645 98.6988 346.332Q100.043 341.019 101.518 335.742Q102.993 330.464 104.598 325.224Q106.203 319.984 107.936 314.785Q111.953 302.771 116.74 291.043C118.554 286.51 120.82 281.875 122.081 277.18Q119.827 281.106 117.652 285.077Q115.477 289.048 113.383 293.063Q111.289 297.077 109.277 301.132Q107.265 305.188 105.334 309.283Q103.404 313.379 101.557 317.512Q99.7103 321.646 97.9471 325.816Q96.184 329.986 94.5054 334.191Q92.8269 338.396 91.2336 342.634Q89.6403 346.872 88.133 351.141Q86.6256 355.41 85.2048 359.709Q83.784 364.008 82.4503 368.334Q81.1166 372.661 79.8706 377.013Q78.6246 381.366 77.4667 385.743Q76.3089 390.12 75.2397 394.519Q74.1705 398.919 73.1903 403.339Q72.2102 407.759 71.3195 412.198Q70.4289 416.637 69.6281 421.093Q68.8273 425.549 68.1167 430.02Q67.406 434.492 66.7858 438.977Q66.1657 443.461 65.6362 447.958Q65.1068 452.454 64.6682 456.96Q64.2297 461.467 63.8823 465.981Q63.5349 470.495 63.2787 475.015Q63.0225 479.535 62.8577 484.06Q62.6929 488.584 62.6195 493.111Q62.5461 497.638 62.5642 502.166Q62.5822 506.693 62.6917 511.219Q62.8012 515.745 63.0021 520.268Q63.2031 524.791 63.4953 529.309Q63.7875 533.827 64.1709 538.339Q64.5544 542.85 65.0288 547.352Q65.5033 551.855 66.0686 556.347C68.7916 578.477 73.4011 600.134 78.8754 621.73C78.8306 621.72 78.782 621.721 78.7411 621.7C78.4146 621.535 78.0475 621.421 77.7775 621.174C75.4666 619.059 68.199 578.084 67.1659 571.67C66.511 567.605 66.5383 560.963 64.8799 557.38C64.5017 556.563 64.034 556.677 63.2402 556.439C63.1254 554.104 64.914 552.216 64.3189 549.695C64.0103 550.008 63.8201 550.53 63.3932 550.633C62.5202 550.845 52.61 545.645 50.4012 544.94C45.5384 543.386 39.4244 543.088 34.5109 544.621C33.0579 545.074 31.5395 546.064 30.0115 546.122C29.4104 546.145 28.7065 546.07 28.0951 546.054L27.1381 546.024C26.0552 547.476 25.1157 549.007 24.1576 550.543L23.163 550.428L22.6515 551.269L22.6217 550.683C21.9422 554.378 22.158 558.275 22.1318 562.02C22.0976 566.908 21.8417 571.857 22.0165 576.736C22.2723 583.881 23.1488 591.2 22.4446 598.331C22.4255 598.525 22.4018 598.718 22.3804 598.911C21.131 592.31 21.2673 584.914 21.0226 578.201Q20.6073 565.749 20.759 553.291Q20.9107 540.833 21.6292 528.395Q22.3476 515.957 23.6313 503.565Q24.915 491.172 26.7613 478.851Q27.5501 473.668 28.4396 468.501Q29.3291 463.334 30.3189 458.186Q31.3087 453.037 32.3984 447.909Q33.4881 442.78 34.6773 437.674Q35.8665 432.568 37.1548 427.486Q38.443 422.404 39.8299 417.348Q41.2167 412.292 42.7017 407.263Q44.1866 402.235 45.769 397.237Q47.3513 392.239 49.0306 387.272Q50.7099 382.305 52.4855 377.372Q54.261 372.439 56.1321 367.542Q58.0033 362.644 59.9693 357.784Q61.9353 352.924 63.9954 348.102Q66.0555 343.281 68.209 338.501Q70.3625 333.721 72.6086 328.984Q74.8546 324.246 77.1923 319.553Q79.5301 314.861 81.9586 310.214Q84.3871 305.568 86.9056 300.969Q89.424 296.371 92.0313 291.822Q94.6387 287.274 97.334 282.777Q100.029 278.28 102.812 273.836Q105.594 269.393 108.462 265.004Q111.33 260.615 114.283 256.283Q117.236 251.951 120.273 247.677Q123.309 243.403 126.428 239.189Q129.547 234.975 132.748 230.822Q135.948 226.669 139.229 222.58Q142.51 218.49 145.869 214.465Q149.229 210.44 152.666 206.481Q156.103 202.522 159.616 198.631Q163.13 194.739 166.718 190.917Q170.307 187.095 173.969 183.343C192.534 164.278 212.607 146.131 234.036 130.329Z"></path>
	<path fill="#1B75BA" transform="scale(1.41964 1.41964)" d="M234.036 130.329C252.278 115.717 272.601 102.912 292.882 91.3425Q297.505 88.7133 302.18 86.1756Q306.854 83.6379 311.577 81.1926Q316.3 78.7474 321.071 76.3955Q325.841 74.0436 330.657 71.786Q335.472 69.5285 340.332 67.3661Q345.191 65.2037 350.092 63.1373Q354.993 61.0709 359.933 59.1014Q364.874 57.1318 369.852 55.2598Q374.83 53.3878 379.844 51.6142Q384.859 49.8405 389.907 48.1658Q394.955 46.4911 400.035 44.916Q405.115 43.341 410.225 41.8661Q415.335 40.3913 420.473 39.0173Q425.611 37.6434 430.776 36.3707Q435.94 35.0981 441.128 33.9273Q446.316 32.7565 451.526 31.688Q456.736 30.6194 461.967 29.6536Q467.197 28.6878 472.445 27.8251Q477.693 26.9624 482.958 26.2031Q488.222 25.4438 493.5 24.7882Q498.778 24.1326 504.068 23.581Q509.358 23.0294 514.658 22.5819Q519.957 22.1345 525.265 21.7914Q530.573 21.4483 535.886 21.2097Q541.199 20.9711 546.516 20.837Q551.833 20.703 557.152 20.6736Q562.47 20.6441 567.788 20.7194Q573.106 20.7946 578.422 20.9744Q583.738 21.1543 589.049 21.4387Q594.36 21.723 599.664 22.1118Q604.969 22.5006 610.264 22.9937Q615.56 23.4868 620.845 24.084Q627.051 24.7835 633.239 25.6274Q639.427 26.4713 645.593 27.4592Q651.76 28.447 657.902 29.5782Q664.044 30.7094 670.157 31.9834Q676.271 33.2573 682.354 34.6734Q688.436 36.0894 694.484 37.6468Q700.532 39.2042 706.542 40.902Q712.552 42.5998 718.521 44.4372Q724.49 46.2746 730.414 48.2505Q736.338 50.2264 742.215 52.3398Q748.092 54.4532 753.918 56.7029Q759.744 58.9526 765.516 61.3374Q771.288 63.7223 777.002 66.2409Q782.717 68.7595 788.372 71.4106Q794.026 74.0617 799.618 76.8437Q805.209 79.6258 810.734 82.5374C819.758 87.3467 832.217 92.4254 838.578 100.487C842.259 105.152 844.081 111.006 843.356 116.928C842.892 120.713 841.383 124.776 839.12 127.86C834.452 134.223 828.085 139.722 822.504 145.303L793.519 174.316L769.429 198.4C765.174 202.65 760.958 207.59 756.16 211.18C751.437 214.714 745.359 216.739 739.454 215.85C729.87 214.407 710.935 202.598 700.738 198.018C688.947 192.722 676.974 188.465 664.579 184.81C552.363 151.715 434.442 168.515 338.492 236.426Q325.385 245.739 313.038 256.039C312.561 255.366 312.216 254.538 311.837 253.803C311.907 253 311.993 252.161 311.938 251.355C311.737 248.403 310.601 245.057 309.65 242.257C304.994 228.547 298.437 232.02 290.476 224.032C286.651 220.194 284.612 214.361 280.348 210.916C276.677 207.949 273.319 203.826 270.404 200.11L269.428 199.728L269.849 199.468C268.915 198.808 268.247 198.031 267.487 197.185L267.724 196.399L267.978 197.376L270.229 198.394L270.62 199.603L271.68 199.881C275.166 205.409 283.444 213.486 288.687 217.446C289.345 217.942 289.863 218.186 290.225 218.954C290.288 219.088 290.312 219.237 290.355 219.378L290.815 218.621L292.187 219.158C291.97 217.075 291.998 214.89 291.598 212.841C291.263 211.123 289.004 209.255 288.045 207.728C285.675 203.955 284.178 199.739 281.534 195.979C278.903 192.238 258.411 170.169 255.392 168.215C250.561 165.088 246.299 154.074 242.279 149.251C240.041 146.566 234.423 140.742 230.837 140.785C229.862 140.796 227.914 142.899 227.14 143.591C225.38 143.686 222.099 143.771 220.925 145.237C220.525 145.737 220.701 145.804 220.152 146.245C219.025 147.148 217.086 147.643 215.688 147.663L215.567 147.153C217.839 142.659 229.68 135.272 234.099 131.448L234.036 130.329Z"></path>
	<defs>
		<linearGradient id="gradient_4" gradientUnits="userSpaceOnUse" x1="1037.4479" y1="813.31049" x2="75.987007" y2="419.41043">
			<stop offset="0" stop-color="#13293F"></stop>
			<stop offset="1" stop-color="#0A4F71"></stop>
		</linearGradient>
	</defs>
	<path fill="url(#gradient_4)" transform="scale(1.41964 1.41964)" d="M78.8754 621.73C105.511 715.463 152.414 794.537 229.164 855.787C322.746 930.47 446.224 961.941 564.623 948.431C640.549 939.768 711.092 911.917 773.714 868.417C803.378 847.811 829.528 825.421 852.083 797.035C882.404 758.873 902.005 715.984 916.519 669.697C936.867 604.807 945.992 535.615 930.343 468.671Q927.884 458.102 924.67 447.737Q921.456 437.372 917.505 427.266C915.393 421.868 913.242 416.437 910.789 411.184C907.227 403.557 900.953 394.448 900.178 385.978C899.611 379.781 901.223 373.38 905.321 368.622C910.927 362.112 917.478 356.136 923.553 350.051L956.611 316.97L979.038 294.565C983.618 289.994 988.322 284.477 993.712 280.901C996.764 278.875 1001.14 277.846 1004.76 277.64C1011.02 277.284 1017.38 279.443 1021.92 283.813C1029.62 291.218 1038.41 310.701 1043.31 320.631Q1046.72 327.542 1049.92 334.547Q1053.13 341.552 1056.14 348.645Q1059.15 355.738 1061.96 362.914Q1064.76 370.09 1067.36 377.343Q1069.96 384.595 1072.36 391.918Q1074.75 399.242 1076.93 406.63Q1079.12 414.019 1081.09 421.466Q1083.07 428.914 1084.83 436.414Q1086.59 443.915 1088.14 451.462Q1089.69 459.01 1091.02 466.598Q1092.36 474.187 1093.47 481.81Q1094.59 489.434 1095.49 497.085Q1096.39 504.737 1097.08 512.412Q1097.76 520.086 1098.22 527.777Q1098.69 535.468 1098.94 543.168Q1099.18 550.869 1099.21 558.574Q1099.23 565.082 1099.09 571.589Q1098.95 578.095 1098.66 584.597Q1098.36 591.098 1097.91 597.59Q1097.45 604.083 1096.84 610.562Q1096.23 617.042 1095.47 623.504Q1094.7 629.967 1093.78 636.41Q1092.86 642.852 1091.78 649.27Q1090.7 655.689 1089.47 662.079Q1088.24 668.469 1086.85 674.828Q1085.47 681.187 1083.93 687.51Q1082.39 693.834 1080.69 700.118Q1079 706.402 1077.16 712.644Q1075.32 718.885 1073.32 725.081Q1071.33 731.276 1069.19 737.421Q1067.04 743.566 1064.75 749.658Q1062.46 755.749 1060.02 761.784Q1057.59 767.818 1055 773.792Q1052.42 779.766 1049.7 785.676Q1046.97 791.585 1044.1 797.427Q1041.23 803.27 1038.23 809.041Q1035.22 814.812 1032.07 820.508Q1028.92 826.205 1025.64 831.824Q1022.36 837.443 1018.94 842.981Q1015.52 848.518 1011.97 853.972Q1008.42 859.426 1004.73 864.792Q1001.05 870.158 997.241 875.434Q993.43 880.71 989.492 885.892Q985.555 891.074 981.494 896.159Q977.433 901.245 973.25 906.23Q969.067 911.216 964.765 916.099Q960.462 920.983 956.043 925.76Q951.624 930.538 947.091 935.208Q942.413 940.042 937.616 944.758Q932.819 949.473 927.905 954.067Q922.992 958.662 917.965 963.132Q912.938 967.602 907.801 971.945Q902.664 976.288 897.421 980.502Q892.177 984.715 886.83 988.796Q881.482 992.877 876.035 996.823Q870.587 1000.77 865.042 1004.58Q859.498 1008.39 853.86 1012.06Q848.222 1015.73 842.494 1019.25Q836.766 1022.78 830.952 1026.16Q825.138 1029.55 819.241 1032.78Q813.344 1036.02 807.368 1039.11Q801.392 1042.2 795.341 1045.13Q789.289 1048.07 783.167 1050.86Q777.044 1053.64 770.854 1056.28Q764.663 1058.91 758.409 1061.39Q752.155 1063.86 745.841 1066.18Q739.526 1068.5 733.156 1070.66Q726.786 1072.82 720.364 1074.83Q713.942 1076.83 707.472 1078.67Q701.001 1080.51 694.487 1082.19Q687.973 1083.86 681.419 1085.38Q674.865 1086.89 668.275 1088.25Q661.685 1089.6 655.064 1090.78Q648.443 1091.97 641.793 1092.99Q635.144 1094.01 628.472 1094.86Q621.8 1095.71 615.108 1096.4Q608.416 1097.09 601.709 1097.61Q595.003 1098.12 588.285 1098.48Q581.567 1098.83 574.843 1099.01Q568.119 1099.19 561.392 1099.21Q554.797 1099.23 548.203 1099.09Q541.61 1098.94 535.022 1098.64Q528.433 1098.34 521.855 1097.87Q515.276 1097.41 508.711 1096.78Q502.145 1096.16 495.597 1095.37Q489.049 1094.58 482.522 1093.64Q475.995 1092.69 469.493 1091.59Q462.991 1090.48 456.519 1089.22Q450.046 1087.95 443.606 1086.53Q437.166 1085.11 430.763 1083.53Q424.359 1081.95 417.997 1080.21Q411.634 1078.48 405.316 1076.59Q398.997 1074.7 392.727 1072.65Q386.457 1070.61 380.239 1068.41Q374.021 1066.21 367.858 1063.86Q361.695 1061.52 355.592 1059.02Q349.489 1056.52 343.448 1053.87Q337.408 1051.22 331.434 1048.43Q325.46 1045.63 319.557 1042.69Q313.653 1039.75 307.823 1036.67Q301.993 1033.59 296.241 1030.36Q290.488 1027.14 284.816 1023.77Q279.144 1020.41 273.556 1016.9Q267.968 1013.4 262.467 1009.76Q256.966 1006.12 251.556 1002.35Q246.146 998.58 240.83 994.677Q235.514 990.774 230.295 986.742Q225.076 982.71 219.957 978.551Q214.838 974.392 209.823 970.11Q204.807 965.827 199.898 961.423Q194.989 957.019 190.189 952.497Q185.389 947.974 180.701 943.335Q177.108 939.786 173.581 936.17Q170.055 932.554 166.598 928.872Q163.14 925.19 159.752 921.444Q156.364 917.698 153.048 913.889Q149.731 910.08 146.486 906.21Q143.241 902.339 140.07 898.408Q136.898 894.478 133.801 890.488Q130.704 886.498 127.683 882.451Q124.661 878.404 121.716 874.3Q118.771 870.197 115.903 866.039Q113.036 861.882 110.247 857.671Q107.458 853.46 104.749 849.197Q102.04 844.934 99.4113 840.622Q96.7827 836.309 94.2355 831.948Q91.6882 827.586 89.2234 823.178Q86.7586 818.769 84.377 814.315Q81.9954 809.861 79.6979 805.363Q77.4004 800.866 75.1878 796.325Q72.9752 791.785 70.8483 787.204Q68.7214 782.623 66.6809 778.003Q64.6404 773.382 62.687 768.725Q60.7337 764.067 58.8681 759.374Q57.0026 754.68 55.2256 749.952Q53.4486 745.224 51.7607 740.464Q50.0727 735.704 48.4746 730.913Q46.8764 726.121 45.3685 721.301Q43.8606 716.481 42.4435 711.633Q41.0264 706.785 39.7006 701.911Q38.3748 697.038 37.1408 692.14Q35.9068 687.242 34.765 682.322Q33.6232 677.402 32.5741 672.462Q31.5249 667.521 30.5687 662.562C26.7046 642.525 22.5421 619.289 22.3804 598.911C22.4018 598.718 22.4255 598.525 22.4446 598.331C23.1488 591.2 22.2723 583.881 22.0165 576.736C21.8417 571.857 22.0976 566.908 22.1318 562.02C22.158 558.275 21.9422 554.378 22.6217 550.683L22.6515 551.269L23.163 550.428L24.1576 550.543C25.1157 549.007 26.0552 547.476 27.1381 546.024L28.0951 546.054C28.7065 546.07 29.4104 546.145 30.0115 546.122C31.5395 546.064 33.0579 545.074 34.5109 544.621C39.4244 543.088 45.5384 543.386 50.4012 544.94C52.61 545.645 62.5202 550.845 63.3932 550.633C63.8201 550.53 64.0103 550.008 64.3189 549.695C64.914 552.216 63.1254 554.104 63.2402 556.439C64.034 556.677 64.5017 556.563 64.8799 557.38C66.5383 560.963 66.511 567.605 67.1659 571.67C68.199 578.084 75.4666 619.059 77.7775 621.174C78.0475 621.421 78.4146 621.535 78.7411 621.7C78.782 621.721 78.8306 621.72 78.8754 621.73Z"></path>
</svg></svg></g></g></svg></g><g id="dark-icon"><svg xmlns="http://www.w3.org/2000/svg" version="1.1" xmlns:xlink="http://www.w3.org/1999/xlink" xmlns:svgjs="http://svgjs.dev/svgjs" width="1000" height="1000"><g clip-path="url(#SvgjsClipPath1086)"><rect width="1000" height="1000" fill="#ffffff"></rect><g transform="matrix(0.44025157232704404,0,0,0.44025157232704404,150,150)"><svg xmlns="http://www.w3.org/2000/svg" version="1.1" xmlns:xlink="http://www.w3.org/1999/xlink" xmlns:svgjs="http://svgjs.dev/svgjs" width="1590" height="1590"><svg xmlns="http://www.w3.org/2000/svg" xmlns:xlink="http://www.w3.org/1999/xlink" width="1590" height="1590">
	<path fill="#FEFEFE" transform="scale(1.41964 1.41964)" d="M0 0L1120 0L1120 1120L0 1120L0 0Z"></path>
	<path fill="#1B75BA" transform="scale(1.41964 1.41964)" d="M831.796 204.614C833.562 204.421 835.486 204.126 837.229 204.58C839.662 205.215 841.951 206.972 843.209 209.146C844.426 211.252 844.726 213.667 844.012 215.996C843.092 219 841.04 220.62 838.419 222.13C836.861 222.454 835.268 222.66 833.69 222.358C831.28 221.898 829.086 220.629 827.711 218.57C826.246 216.378 825.874 213.696 826.447 211.143C827.17 207.92 829.173 206.37 831.796 204.614Z"></path>
	<path fill="#1B75BA" transform="scale(1.41964 1.41964)" d="M551.074 521.673C562.179 519.286 572.848 520.366 582.652 526.415C591.336 531.772 598.678 540.575 601.052 550.625C598.008 548.504 590.152 526.782 581.717 528.784C581.458 528.845 580.414 529.264 580.144 529.481C578.744 530.602 578.005 533.019 576.737 534.375C574.743 536.507 572.261 538.429 570.05 540.341C575.378 543.847 582.65 549.114 583.639 555.935C583.767 556.819 583.694 557.755 583.623 558.642C583.438 558.123 583.255 557.604 583.053 557.091C580.246 549.958 575.208 543.769 567.984 540.794C561.489 538.118 555.669 539.018 549.423 541.66C549.651 535.015 550.482 528.301 551.074 521.673Z"></path>
	<path fill="#105F93" transform="scale(1.41964 1.41964)" d="M553.747 778.323C559.432 778.122 567.269 776.765 571.804 780.774C573.029 784.459 573.375 815.765 572.555 819.982C572.075 822.454 570.504 823.283 568.508 824.502C563.351 824.64 554.698 825.971 550.696 822.291C549.234 817.877 548.555 787.09 549.748 782.651C550.359 780.379 551.859 779.469 553.747 778.323Z"></path>
	<path fill="#132F45" transform="scale(1.41964 1.41964)" d="M299.798 547.036C310.507 546.957 321.49 546.373 332.17 546.926C334.587 547.051 339.459 547.519 340.882 549.857C342.076 551.819 342.065 564.41 341.038 566.736C340.147 568.751 338.617 569.481 336.712 570.288C330.963 570.256 302.655 571.078 299.558 569.932C297.981 569.348 297.013 568.335 296.294 566.858C294.333 562.828 294.423 554.798 296.032 550.578C296.78 548.614 297.972 547.883 299.798 547.036Z"></path>
	<path fill="#1B75BA" transform="scale(1.41964 1.41964)" d="M785.515 547.07C790.533 546.878 819.067 546.244 821.815 547.161C823.841 547.836 825.401 549.147 826.308 551.101C828.134 555.04 827.932 562.966 826.256 567.057C825.465 568.987 824.141 569.65 822.366 570.444C815.518 570.42 789.219 571.469 784.676 569.888C783.157 569.36 782.237 568.302 781.599 566.858C779.792 562.774 780.027 554.772 781.623 550.611C782.407 548.567 783.654 547.907 785.515 547.07Z"></path>
	<path fill="#132F45" transform="scale(1.41964 1.41964)" d="M554.201 292.752C558.238 292.654 562.605 292.249 566.61 292.733C568.477 292.959 570.512 293.412 571.705 294.969C573.589 301.208 574.374 329.726 572.196 335.502C571.46 337.454 570.287 338.11 568.522 338.931C564.076 339.043 558.198 339.841 553.918 338.69C552.644 338.347 551.744 338.02 551.109 336.804C548.584 331.968 548.41 302.065 550.313 296.59C551.037 294.507 552.33 293.724 554.201 292.752Z"></path>
	<path fill="#105F93" transform="scale(1.41964 1.41964)" d="M677.351 745.315C677.938 745.301 678.525 745.278 679.111 745.299C680.835 745.36 682.061 745.884 683.206 747.176C686.776 751.203 698.473 772.061 700.498 777.075C701.187 778.779 702.092 781.103 701.726 782.963C701.07 786.29 690.783 790.875 687.719 792.504C686.655 792.522 685.537 792.575 684.492 792.327C682.056 791.747 680.786 789.259 679.588 787.273C676.301 781.823 662.102 760.109 663.502 754.447C666.62 750.26 672.816 747.771 677.351 745.315Z"></path>
	<path fill="#132F45" transform="scale(1.41964 1.41964)" d="M434.576 324.796C435.587 324.737 436.562 324.716 437.561 324.904C439.849 325.335 440.75 326.706 441.959 328.542C444.328 332.143 460.429 358.497 459.317 361.931C457.914 366.261 449.181 369.817 445.353 371.882C444.413 371.919 443.357 372.016 442.426 371.884C440.166 371.565 439.331 370.332 438.16 368.579C434.529 363.137 419.634 339.408 420.677 334.261C423.672 329.86 429.985 327.315 434.576 324.796Z"></path>
	<path fill="#105F93" transform="scale(1.41964 1.41964)" d="M440.914 745.419C445.898 744.996 451.611 748.098 455.477 751.15C457.328 752.611 459.127 754.543 459.141 757.05C459.163 760.829 442.328 789.137 438.884 792.173C438.037 792.319 437.19 792.437 436.328 792.445C433.018 792.476 424.137 787.265 421.794 784.749C420.783 783.663 420.337 782.549 420.515 781.059C421.097 776.191 436.831 748.831 440.914 745.419Z"></path>
	<path fill="#132F45" transform="scale(1.41964 1.41964)" d="M336.801 417.784C337.529 417.747 338.327 417.676 339.058 417.755C343.444 418.227 371.409 434.498 373.955 438.031C374.675 439.029 374.711 440.034 374.516 441.23C373.757 445.891 369.033 453.796 365.226 456.589C364.549 456.647 363.814 456.734 363.131 456.675C359.209 456.337 330.892 439.873 328.266 436.59C327.487 435.617 327.406 434.686 327.564 433.462C328.172 428.754 333.062 420.641 336.801 417.784Z"></path>
	<path fill="#1B75BA" transform="scale(1.41964 1.41964)" d="M757.416 660.615Q758.602 660.551 759.783 660.676C763.964 661.14 791.899 677.785 794.452 681.113C794.83 682.565 794.951 683.637 794.611 685.119C793.609 689.494 789.262 697.046 785.364 699.538C784.553 699.55 784.264 699.57 783.406 699.507C779.031 699.186 751.611 682.812 748.468 679.285C748.071 678.189 747.868 677.337 748.012 676.181C748.606 671.381 753.51 663.481 757.416 660.615Z"></path>
	<path fill="#E67102" transform="scale(1.41964 1.41964)" d="M361.284 660.53C362.132 660.508 363.128 660.428 363.96 660.591C366.896 661.165 369.372 665.132 370.907 667.503C372.754 670.356 375.293 674.969 374.164 678.435C372.956 682.149 345.181 696.929 340.294 699.539C339.578 699.524 338.678 699.559 337.965 699.4C334.975 698.732 332.551 694.793 330.984 692.352C329.169 689.525 326.711 685.051 327.867 681.594C329.377 677.079 355.353 663.903 361.284 660.53Z"></path>
	<path fill="#1B75BA" transform="scale(1.41964 1.41964)" d="M850.357 216.444C856.156 220.64 861.585 227.42 866.703 232.544L905.512 271.424C901.401 275.329 897.443 279.416 893.431 283.424C889.76 281.771 844.962 235.575 838.078 228.677C842.228 224.664 846.272 220.524 850.357 216.444Z"></path>
	<path fill="#105F93" transform="scale(1.41964 1.41964)" d="M583.623 558.642C583.694 557.755 583.767 556.819 583.639 555.935C582.65 549.114 575.378 543.847 570.05 540.341C572.261 538.429 574.743 536.507 576.737 534.375C578.005 533.019 578.744 530.602 580.144 529.481C580.414 529.264 581.458 528.845 581.717 528.784C590.152 526.782 598.008 548.504 601.052 550.625C604.128 560.128 602.986 570.592 598.511 579.472C593.432 589.553 583.907 598.122 573.137 601.669C570.66 602.485 568.08 603.056 565.511 603.489C565.697 597.14 566.579 590.65 567.247 584.33C571.568 582.937 575.778 580.66 578.755 577.161C583.278 571.845 584.244 565.372 583.623 558.642Z"></path>
	<defs>
		<linearGradient id="gradient_0" gradientUnits="userSpaceOnUse" x1="520.74347" y1="554.80688" x2="573.61884" y2="571.93872">
			<stop offset="0" stop-color="#F17D00"></stop>
			<stop offset="1" stop-color="#CC320E"></stop>
		</linearGradient>
	<clipPath id="SvgjsClipPath1086"><rect width="1000" height="1000" x="0" y="0" rx="250" ry="250"></rect></clipPath></defs>
	<path fill="url(#gradient_0)" transform="scale(1.41964 1.41964)" d="M544.926 523.805C544.43 530.614 544.303 537.826 543.126 544.534C542 550.946 537.632 555.01 538.268 561.918C538.913 568.934 542.673 575.066 548.152 579.392C554.05 584.048 560.007 585.093 567.247 584.33C566.579 590.65 565.697 597.14 565.511 603.489C560.144 603.657 555.452 603.633 550.214 602.196C539.372 599.221 529.881 591.49 524.453 581.682Q523.98 580.823 523.55 579.942Q523.12 579.061 522.734 578.159Q522.347 577.258 522.005 576.339Q521.664 575.42 521.367 574.485Q521.071 573.55 520.821 572.602Q520.571 571.654 520.368 570.695Q520.164 569.736 520.008 568.767Q519.852 567.799 519.744 566.825Q519.636 565.85 519.575 564.872Q519.515 563.893 519.502 562.912Q519.49 561.932 519.526 560.952Q519.561 559.972 519.645 558.995Q519.729 558.018 519.86 557.046Q519.992 556.075 520.17 555.11Q520.349 554.146 520.575 553.192Q520.801 552.238 521.074 551.296C524.715 538.72 533.681 529.927 544.926 523.805Z"></path>
	<path fill="#1B75BA" transform="scale(1.41964 1.41964)" d="M901.855 172.327C904.536 174.035 907.227 182.541 908.594 185.665C899.096 188.705 890.828 192.656 885.677 201.683C884.559 203.644 884.21 205.949 884.905 208.115C885.511 209.999 886.546 211.711 888.498 212.438C895.15 214.912 910.963 202.713 918.257 200.273C923.728 198.443 929.677 198.262 934.866 201.047C940.261 203.942 944.031 210.002 945.618 215.779C947.341 222.052 945.441 228.938 942.314 234.456C935.383 246.686 922.92 254.365 909.667 257.959L908.642 257.912C905.896 255.977 903.606 247.638 902.307 244.303C912.296 242.36 922.17 237.772 928.187 229.227C929.811 226.921 931.219 224.063 930.534 221.192C930.083 219.304 928.636 217.528 926.884 216.701C920.276 213.58 905.555 225.435 898.811 227.982C893.306 230.061 886.732 230.875 881.261 228.231C875.962 225.67 871.403 219.189 869.645 213.613C867.691 207.414 869.346 200.567 872.361 194.999C878.5 183.66 889.671 175.864 901.855 172.327Z"></path>
	<path fill="#1B75BA" transform="scale(1.41964 1.41964)" d="M832.864 234.007C834.873 236.558 840.42 272.416 841.532 278.595C856.614 280.386 874.433 284.365 889.515 287.355L875.176 301.624C864.877 299.011 854.229 297.351 843.841 295.046Q847.006 310.758 850.379 326.428L838.673 338.119C837.929 338.958 837.43 339.396 836.401 339.852C834.168 335.392 829.029 300.963 827.67 293.309C812.626 289.964 797.263 287.791 782.16 284.66L796.098 270.722Q810.978 273.494 825.815 276.484Q822.759 261.673 820.009 246.802L832.864 234.007Z"></path>
	<path fill="#1B75BA" transform="scale(1.41964 1.41964)" d="M779.282 287.548C782.993 290.379 786.413 294.538 789.75 297.859L762.192 325.384L773.991 337.153L798.234 312.881L808.245 322.895L783.98 347.164L796.52 359.711L823.788 332.352C824.518 331.602 824.034 331.886 825.372 331.782C828.992 334.586 832.148 338.206 835.36 341.472L794.468 382.339L739.486 327.356L779.282 287.548Z"></path>
	<path fill="#1B75BA" transform="scale(1.41964 1.41964)" d="M730.147 336.691C733.566 338.368 778.572 384.697 785.357 391.496L775.191 401.647L716.341 394.571C726.801 405.964 738.296 416.666 749.243 427.609L737.125 439.67C732.939 437.063 725.654 428.556 721.831 424.73L681.978 384.819L692.255 374.604C698.136 375.746 704.34 376.16 710.296 376.875C723.974 378.517 737.712 379.954 751.34 381.966L718.055 348.701C722.125 344.742 726.119 340.694 730.147 336.691Z"></path>
	<path fill="#1B75BA" transform="scale(1.41964 1.41964)" d="M612.175 463.832C612.386 463.819 612.598 463.801 612.81 463.792C621.15 463.43 628.24 465.858 634.323 471.711C639.697 476.881 643.224 483.925 643.133 491.473C642.955 506.231 630.84 515.889 621.222 525.366L636.358 540.503L623.971 552.792L620.314 549.135L568.992 497.811C581.272 485.739 594.863 467.529 612.175 463.832Z"></path>
	<path fill="#FEFEFE" transform="scale(1.41964 1.41964)" d="M609.942 480.732C611.828 480.544 613.759 480.28 615.612 480.81C619.433 481.901 623.19 484.806 625.07 488.319C626.606 491.191 626.807 494.328 625.704 497.384C624.185 501.591 614.512 512.85 610.465 514.628L591.965 496.132C597.485 490.498 602.736 484.194 609.942 480.732Z"></path>
	<path fill="#1B75BA" transform="scale(1.41964 1.41964)" d="M670.721 405.925C679.801 405.412 688.075 406.692 695.932 411.54C705.515 417.453 712.771 427.257 715.268 438.263Q715.477 439.194 715.64 440.135Q715.803 441.075 715.918 442.022Q716.034 442.97 716.102 443.922Q716.171 444.874 716.191 445.828Q716.212 446.782 716.185 447.736Q716.158 448.69 716.084 449.641Q716.009 450.593 715.888 451.539Q715.766 452.486 715.597 453.425Q715.428 454.365 715.213 455.294Q714.998 456.224 714.736 457.142Q714.475 458.06 714.168 458.964Q713.861 459.867 713.51 460.755Q713.158 461.642 712.763 462.511Q712.367 463.379 711.929 464.227Q711.491 465.075 711.011 465.9Q710.531 466.725 710.011 467.525C703.405 477.833 693.665 483.497 681.909 486.002C671.841 486.922 662.438 484.933 654.076 479.106C645.072 472.831 638.286 463.131 636.357 452.252Q636.188 451.311 636.065 450.362Q635.943 449.414 635.867 448.46Q635.791 447.507 635.763 446.551Q635.734 445.595 635.752 444.639Q635.77 443.683 635.836 442.729Q635.901 441.775 636.013 440.825Q636.125 439.875 636.284 438.932Q636.443 437.989 636.648 437.055Q636.853 436.121 637.104 435.198Q637.355 434.275 637.65 433.366Q637.946 432.456 638.286 431.563Q638.627 430.669 639.01 429.793Q639.394 428.917 639.821 428.061Q640.247 427.205 640.715 426.371Q641.183 425.537 641.692 424.727Q642.2 423.917 642.748 423.133C649.558 413.386 659.137 407.894 670.721 405.925Z"></path>
	<path fill="#FEFEFE" transform="scale(1.41964 1.41964)" d="M670.335 422.264C675.645 421.721 680.591 422.595 685.286 425.178C691.887 428.81 697.136 435.22 699.037 442.535Q699.177 443.059 699.291 443.59Q699.404 444.121 699.492 444.656Q699.578 445.192 699.639 445.732Q699.699 446.271 699.732 446.813Q699.765 447.354 699.771 447.897Q699.777 448.44 699.756 448.982Q699.735 449.525 699.687 450.065Q699.638 450.606 699.563 451.143Q699.488 451.681 699.386 452.214Q699.284 452.747 699.156 453.274Q699.027 453.802 698.873 454.322Q698.718 454.842 698.538 455.354Q698.357 455.866 698.151 456.368Q697.946 456.87 697.715 457.362Q697.484 457.853 697.229 458.332Q696.974 458.811 696.696 459.277C693.258 464.965 687.795 468.051 681.54 469.685C675.944 470.163 670.881 469.237 665.992 466.369C659.654 462.651 654.537 456.293 652.779 449.107Q652.647 448.585 652.541 448.058Q652.435 447.531 652.355 446.999Q652.275 446.466 652.222 445.931Q652.169 445.396 652.142 444.858Q652.115 444.321 652.115 443.783Q652.116 443.245 652.142 442.708Q652.169 442.17 652.222 441.635Q652.276 441.099 652.356 440.567Q652.436 440.035 652.542 439.508Q652.648 438.981 652.78 438.459Q652.913 437.938 653.071 437.423Q653.229 436.909 653.412 436.403Q653.595 435.897 653.803 435.401Q654.012 434.905 654.244 434.42Q654.477 433.935 654.733 433.462Q654.99 432.989 655.269 432.529C658.688 426.955 664.126 423.815 670.335 422.264Z"></path>
	<defs>
		<linearGradient id="gradient_1" gradientUnits="userSpaceOnUse" x1="435.85266" y1="267.75595" x2="523.547" y2="683.78662">
			<stop offset="0" stop-color="#132D43"></stop>
			<stop offset="1" stop-color="#124E74"></stop>
		</linearGradient>
	</defs>
	<path fill="url(#gradient_1)" transform="scale(1.41964 1.41964)" d="M299.389 729.053C293.41 721.511 288.509 712.022 284 703.522Q281.807 699.377 279.74 695.169Q277.673 690.96 275.733 686.691Q273.793 682.422 271.983 678.097Q270.173 673.771 268.493 669.393Q266.813 665.015 265.266 660.589Q263.719 656.163 262.306 651.692Q260.892 647.221 259.614 642.709Q258.336 638.198 257.194 633.65Q256.052 629.103 255.047 624.523Q254.043 619.942 253.176 615.334Q252.309 610.726 251.582 606.094Q250.854 601.462 250.266 596.81Q249.678 592.158 249.23 587.49Q248.783 582.823 248.475 578.144Q248.168 573.465 248.002 568.779Q247.835 564.093 247.81 559.404Q247.804 555.634 247.89 551.866Q247.975 548.097 248.152 544.331Q248.329 540.566 248.598 536.806Q248.866 533.046 249.226 529.293Q249.585 525.541 250.036 521.798Q250.487 518.055 251.028 514.325Q251.57 510.594 252.201 506.878Q252.833 503.161 253.555 499.461Q254.277 495.761 255.088 492.08Q255.9 488.399 256.8 484.738Q257.701 481.078 258.69 477.44Q259.679 473.803 260.756 470.19Q261.834 466.578 262.998 462.992Q264.163 459.407 265.414 455.851Q266.665 452.295 268.003 448.771Q269.34 445.246 270.762 441.755Q272.185 438.264 273.692 434.809Q275.199 431.353 276.789 427.935Q278.379 424.517 280.052 421.139Q281.725 417.761 283.479 414.424Q285.233 411.088 287.068 407.795Q288.903 404.502 290.817 401.254Q292.731 398.007 294.724 394.806Q296.716 391.606 298.786 388.456Q300.855 385.305 303.001 382.205Q305.146 379.106 307.366 376.059Q309.586 373.012 311.88 370.021Q314.173 367.029 316.538 364.094Q318.904 361.158 321.34 358.281Q323.776 355.405 326.281 352.588Q328.786 349.771 331.358 347.015Q333.931 344.26 336.57 341.568Q339.222 338.84 341.941 336.178Q344.66 333.516 347.444 330.922Q350.228 328.328 353.075 325.804Q355.922 323.279 358.83 320.826Q361.739 318.373 364.707 315.992Q367.675 313.611 370.701 311.305Q373.727 308.998 376.81 306.767Q379.892 304.535 383.028 302.381Q386.164 300.227 389.353 298.15Q392.542 296.074 395.78 294.077Q399.019 292.08 402.307 290.164Q405.594 288.248 408.927 286.413Q412.261 284.579 415.639 282.827Q419.017 281.076 422.437 279.408Q425.857 277.74 429.317 276.158Q432.777 274.575 436.276 273.078Q439.774 271.582 443.308 270.172Q446.842 268.762 450.41 267.44Q453.978 266.118 457.578 264.884Q461.177 263.651 464.806 262.506Q468.435 261.362 472.091 260.308Q475.747 259.253 479.428 258.29Q483.109 257.326 486.812 256.454Q490.516 255.581 494.24 254.801Q497.964 254.02 501.706 253.331Q505.449 252.643 509.207 252.047Q512.965 251.451 516.736 250.948Q520.508 250.445 524.291 250.036Q528.074 249.626 531.866 249.31Q535.657 248.994 539.456 248.772Q543.255 248.55 547.057 248.422Q550.86 248.293 554.665 248.259Q558.598 248.215 562.532 248.272Q566.465 248.329 570.395 248.487Q574.326 248.644 578.251 248.902Q582.176 249.161 586.093 249.519Q590.011 249.878 593.917 250.337Q597.824 250.795 601.718 251.354Q605.612 251.913 609.49 252.571Q613.368 253.229 617.228 253.986Q621.088 254.744 624.928 255.6Q628.767 256.455 632.583 257.409Q636.399 258.363 640.19 259.414Q643.981 260.466 647.743 261.614Q651.505 262.762 655.237 264.006Q658.969 265.25 662.668 266.589Q666.366 267.928 670.029 269.361Q673.693 270.794 677.318 272.321C682 274.262 691.354 277.113 694.524 281.009C695.616 282.351 695.983 283.995 695.675 285.695C694.969 289.591 685.317 298.43 681.935 300.597C679.362 302.246 676.881 302.614 673.893 302.107C666.329 300.823 658.288 296.371 651.009 293.668Q637.483 288.764 623.482 285.45Q620.142 284.644 616.784 283.919Q613.426 283.195 610.051 282.554Q606.676 281.912 603.286 281.353Q599.896 280.795 596.494 280.32Q593.092 279.845 589.678 279.453Q586.265 279.062 582.844 278.755Q579.422 278.447 575.994 278.224Q572.566 278.001 569.133 277.861Q565.7 277.722 562.265 277.668Q558.83 277.613 555.395 277.642Q551.96 277.672 548.526 277.786Q545.092 277.9 541.663 278.098Q538.233 278.296 534.809 278.579Q531.385 278.861 527.969 279.228Q524.553 279.594 521.148 280.044Q517.742 280.494 514.348 281.028Q510.954 281.562 507.575 282.178Q504.195 282.795 500.832 283.495Q497.468 284.195 494.123 284.977Q490.778 285.759 487.453 286.622Q484.127 287.486 480.825 288.432Q477.522 289.377 474.243 290.403Q470.964 291.429 467.712 292.536Q464.46 293.642 461.235 294.828Q458.011 296.014 454.817 297.278Q451.623 298.543 448.46 299.886Q445.298 301.229 442.17 302.648Q439.042 304.068 435.949 305.565Q432.857 307.061 429.802 308.633Q426.747 310.205 423.732 311.851Q420.717 313.498 417.743 315.218Q414.769 316.938 411.838 318.73Q408.886 320.537 405.979 322.416Q403.073 324.295 400.213 326.245Q397.353 328.194 394.542 330.214Q391.731 332.233 388.97 334.321Q386.21 336.409 383.501 338.564Q380.793 340.719 378.138 342.939Q375.484 345.16 372.884 347.445Q370.285 349.731 367.742 352.079Q365.2 354.428 362.716 356.838Q360.232 359.248 357.807 361.719Q355.383 364.189 353.021 366.718Q350.658 369.247 348.358 371.834Q346.058 374.42 343.822 377.063Q341.586 379.705 339.416 382.401Q337.246 385.097 335.143 387.846Q333.039 390.595 331.004 393.394Q328.969 396.194 327.003 399.043Q325.037 401.891 323.142 404.787Q321.247 407.684 319.423 410.625Q317.6 413.567 315.849 416.553Q314.098 419.538 312.421 422.566Q310.744 425.594 309.142 428.662Q307.54 431.73 306.013 434.836Q304.487 437.943 303.038 441.086Q301.588 444.229 300.216 447.406Q298.844 450.584 297.551 453.794Q296.257 457.005 295.043 460.246Q293.828 463.487 292.694 466.757Q291.56 470.027 290.506 473.324Q289.452 476.621 288.48 479.943Q287.507 483.264 286.617 486.609Q285.726 489.954 284.918 493.319Q284.216 496.257 283.578 499.21Q282.939 502.162 282.365 505.128Q281.791 508.093 281.281 511.071Q280.771 514.048 280.325 517.036Q279.88 520.023 279.499 523.02Q279.118 526.017 278.802 529.021Q278.486 532.025 278.235 535.035Q277.984 538.045 277.798 541.06Q277.612 544.075 277.492 547.094Q277.371 550.112 277.316 553.132Q277.26 556.152 277.27 559.173Q277.28 562.194 277.355 565.214Q277.431 568.233 277.571 571.251Q277.712 574.268 277.918 577.282Q278.123 580.296 278.394 583.304Q278.665 586.313 279.001 589.315Q279.337 592.317 279.737 595.311Q280.138 598.305 280.603 601.29Q281.069 604.274 281.598 607.248Q282.128 610.222 282.722 613.184Q283.316 616.146 283.973 619.094Q284.631 622.042 285.353 624.975Q286.074 627.909 286.859 630.826Q287.643 633.743 288.491 636.642Q289.338 639.542 290.248 642.422Q291.158 645.302 292.13 648.162Q293.102 651.022 294.136 653.861Q295.169 656.699 296.264 659.515Q297.359 662.33 298.514 665.121Q299.669 667.912 300.885 670.677Q302.1 673.443 303.375 676.181Q304.65 678.92 305.984 681.63C313.308 696.464 321.615 708.275 330.156 722.189C327.106 721.697 325.841 714.908 322.79 716.629C322.636 715.801 322.574 715.231 322.576 714.411C320.236 715.464 319.593 717.114 318.719 719.432C316.994 724.004 316.806 725.617 312.608 728.676C310.976 728.773 308.683 729.122 307.125 728.75C304.339 728.085 302.474 724.958 299.609 726.753L299.389 729.053Z"></path>
	<defs>
		<linearGradient id="gradient_2" gradientUnits="userSpaceOnUse" x1="302.12491" y1="643.67871" x2="862.98718" y2="663.94928">
			<stop offset="0" stop-color="#115279"></stop>
			<stop offset="1" stop-color="#1676B7"></stop>
		</linearGradient>
	</defs>
	<path fill="url(#gradient_2)" transform="scale(1.41964 1.41964)" d="M330.156 722.189C334.344 726.435 337.762 731.741 341.552 736.37Q351.729 748.88 363.409 759.999Q365.812 762.314 368.27 764.571Q370.728 766.829 373.238 769.027Q375.748 771.226 378.31 773.364Q380.872 775.503 383.484 777.58Q386.095 779.657 388.755 781.672Q391.415 783.687 394.123 785.638Q396.83 787.589 399.582 789.476Q402.335 791.363 405.131 793.184Q407.928 795.004 410.766 796.759Q413.605 798.513 416.485 800.199Q419.364 801.886 422.283 803.503Q425.201 805.121 428.158 806.669Q431.114 808.218 434.106 809.695Q437.098 811.173 440.124 812.58Q443.15 813.986 446.208 815.32Q449.267 816.655 452.356 817.917Q455.446 819.178 458.564 820.366Q461.682 821.555 464.828 822.669Q467.974 823.782 471.145 824.822Q474.316 825.861 477.511 826.825Q480.705 827.788 483.922 828.676Q487.139 829.564 490.376 830.375Q493.613 831.187 496.868 831.921Q500.123 832.656 503.395 833.313Q506.666 833.97 509.952 834.55Q513.239 835.13 516.538 835.631Q519.837 836.133 523.147 836.556Q526.457 836.979 529.776 837.324Q533.095 837.669 536.422 837.935Q539.748 838.201 543.08 838.389Q546.411 838.576 549.747 838.684Q553.082 838.793 556.419 838.822Q559.86 838.837 563.3 838.768Q566.74 838.699 570.177 838.545Q573.614 838.391 577.047 838.153Q580.479 837.915 583.905 837.593Q587.331 837.271 590.747 836.865Q594.164 836.459 597.57 835.969Q600.975 835.479 604.368 834.906Q607.761 834.333 611.138 833.677Q614.516 833.021 617.876 832.282Q621.237 831.543 624.578 830.721Q627.919 829.9 631.24 828.997Q634.56 828.095 637.857 827.111Q641.154 826.127 644.426 825.062Q647.698 823.997 650.942 822.853Q654.187 821.708 657.403 820.484Q660.618 819.26 663.803 817.958Q666.988 816.656 670.14 815.276Q673.292 813.895 676.409 812.438Q679.526 810.981 682.606 809.448Q685.686 807.915 688.728 806.307Q691.77 804.699 694.771 803.017Q697.773 801.334 700.732 799.579Q703.691 797.824 706.606 795.996Q709.522 794.169 712.391 792.27Q715.261 790.372 718.083 788.403Q720.905 786.435 723.678 784.398Q726.451 782.361 729.173 780.257Q731.895 778.152 734.565 775.982Q737.235 773.811 739.85 771.576Q742.466 769.34 745.026 767.042Q747.586 764.743 750.089 762.382Q752.592 760.021 755.036 757.599Q757.481 755.18 759.867 752.703Q762.253 750.225 764.577 747.689Q766.901 745.154 769.162 742.563Q771.424 739.971 773.622 737.325Q775.819 734.679 777.951 731.98Q780.083 729.281 782.148 726.531Q784.214 723.781 786.211 720.98Q788.209 718.18 790.137 715.332Q792.065 712.484 793.924 709.59Q795.782 706.695 797.569 703.757Q799.355 700.818 801.07 697.836Q802.784 694.854 804.425 691.831Q806.066 688.808 807.632 685.746Q809.199 682.684 810.69 679.585Q812.181 676.485 813.596 673.35Q815.01 670.215 816.348 667.046Q817.686 663.878 818.945 660.677Q820.205 657.477 821.386 654.246Q822.568 651.016 823.669 647.758Q824.771 644.499 825.793 641.215Q826.814 637.931 827.755 634.623Q828.696 631.314 829.556 627.984Q830.416 624.654 831.194 621.303Q831.972 617.953 832.668 614.585Q833.364 611.216 833.977 607.832Q834.591 604.448 835.121 601.049Q835.651 597.651 836.098 594.241Q836.545 590.83 836.909 587.41Q837.272 583.99 837.552 580.562Q837.832 577.134 838.027 573.7Q838.223 570.266 838.335 566.828Q838.446 563.39 838.474 559.951Q838.527 546.239 837.27 532.585Q836.013 518.931 833.458 505.459C831.929 497.216 824.266 473.876 824.739 468.08C825.091 463.782 828.654 460.338 831.541 457.459C834.258 454.751 839.486 448.201 843.391 448.194C845.201 448.19 846.699 449.27 847.801 450.611C852.012 455.733 853.993 466.274 855.77 472.741C867.088 513.934 870.874 556.138 865.233 598.599Q864.727 602.398 864.128 606.183Q863.529 609.969 862.837 613.738Q862.145 617.508 861.36 621.259Q860.575 625.01 859.698 628.741Q858.821 632.472 857.852 636.18Q856.883 639.888 855.823 643.571Q854.764 647.254 853.613 650.91Q852.463 654.566 851.223 658.192Q849.983 661.818 848.654 665.413Q847.325 669.008 845.908 672.569Q844.491 676.13 842.987 679.654Q841.482 683.179 839.891 686.666Q838.301 690.153 836.624 693.599Q834.948 697.046 833.188 700.45Q831.427 703.854 829.583 707.214Q827.739 710.574 825.813 713.887Q823.886 717.2 821.879 720.465Q819.872 723.73 817.785 726.944Q815.698 730.158 813.532 733.32Q811.366 736.482 809.124 739.59Q806.881 742.698 804.562 745.749Q802.243 748.801 799.85 751.794Q797.457 754.787 794.99 757.721Q792.524 760.654 789.986 763.526Q787.448 766.398 784.84 769.206Q782.233 772.015 779.556 774.758Q776.88 777.502 774.137 780.178Q771.394 782.855 768.586 785.463Q765.778 788.071 762.906 790.609Q760.035 793.147 757.102 795.614Q754.168 798.081 751.175 800.474Q748.182 802.868 745.131 805.187Q742.117 807.476 739.048 809.69Q735.98 811.904 732.858 814.043Q729.736 816.182 726.562 818.244Q723.389 820.305 720.167 822.289Q716.944 824.272 713.673 826.177Q710.403 828.081 707.087 829.904Q703.771 831.728 700.412 833.47Q697.052 835.212 693.651 836.872Q690.25 838.531 686.81 840.107Q683.369 841.683 679.891 843.174Q676.413 844.665 672.9 846.071Q669.386 847.477 665.839 848.796Q662.293 850.116 658.715 851.348Q655.137 852.58 651.53 853.725Q647.922 854.869 644.289 855.925Q640.655 856.981 636.996 857.948Q633.337 858.915 629.656 859.792Q625.975 860.669 622.273 861.456Q618.572 862.243 614.852 862.939Q611.132 863.635 607.397 864.24Q603.661 864.845 599.912 865.359Q596.163 865.872 592.402 866.294Q588.641 866.716 584.871 867.046Q581.102 867.375 577.325 867.613Q573.548 867.85 569.766 867.995Q565.985 868.14 562.201 868.193Q558.417 868.245 554.633 868.205Q550.849 868.165 547.067 868.033Q543.285 867.9 539.508 867.676Q535.73 867.451 531.959 867.134Q528.188 866.816 524.426 866.407Q520.664 865.998 516.913 865.497Q513.107 864.982 509.315 864.374Q505.523 863.766 501.747 863.064Q497.97 862.362 494.213 861.568Q490.455 860.773 486.718 859.886Q482.982 858.999 479.268 858.02Q475.554 857.041 471.865 855.971Q468.177 854.9 464.516 853.739Q460.855 852.578 457.223 851.327Q453.592 850.077 449.993 848.736Q446.393 847.396 442.828 845.968Q439.263 844.539 435.734 843.023Q432.205 841.507 428.715 839.905Q425.225 838.302 421.775 836.614Q418.325 834.926 414.918 833.153Q411.511 831.381 408.148 829.524Q404.786 827.668 401.47 825.729Q398.155 823.791 394.888 821.771Q391.621 819.751 388.405 817.652Q385.19 815.552 382.026 813.373Q378.863 811.195 375.755 808.939Q372.646 806.683 369.595 804.352Q366.543 802.02 363.549 799.614Q360.556 797.207 357.623 794.728Q354.69 792.248 351.818 789.697Q348.947 787.146 346.14 784.525Q343.333 781.904 340.591 779.214Q337.849 776.525 335.175 773.769Q332.5 771.012 329.894 768.191Q327.288 765.369 324.753 762.484Q322.217 759.599 319.754 756.653Q317.29 753.706 314.9 750.7Q312.51 747.693 310.195 744.629C306.725 740.074 301.609 734.248 299.389 729.053L299.609 726.753C302.474 724.958 304.339 728.085 307.125 728.75C308.683 729.122 310.976 728.773 312.608 728.676C316.806 725.617 316.994 724.004 318.719 719.432C319.593 717.114 320.236 715.464 322.576 714.411C322.574 715.231 322.636 715.801 322.79 716.629C325.841 714.908 327.106 721.697 330.156 722.189Z"></path>
	<path fill="#132F45" transform="scale(1.41964 1.41964)" d="M856.414 24.7532C907.427 23.9606 958.582 24.7352 1009.61 24.7357C1023.48 24.7358 1095.89 23.4988 1101.8 25.6465C1103.91 26.4165 1106.48 27.9091 1107.39 30.0497C1108.67 33.0459 1109.07 36.6769 1109.18 39.9223C1109.64 53.9681 1109.23 68.1596 1109.23 82.2177L1109.2 165.159L1109.21 235.96C1109.24 248.806 1109.72 261.845 1109.2 274.669C1109.11 276.967 1108.91 279.148 1107.87 281.235C1106.04 284.896 1102.64 286.319 1098.96 287.537C1096.65 287.537 1094.47 287.357 1092.35 286.387C1087.01 283.946 1049.13 244.284 1042.57 237.724L923.871 118.996L877.59 72.7616C869.248 64.4451 860.632 56.279 852.54 47.723C850.583 45.6536 848.206 43.2863 847.225 40.5793C846.131 37.5634 846.327 34.0566 847.814 31.2138C849.723 27.5669 852.626 25.9344 856.414 24.7532Z"></path>
	<defs>
		<linearGradient id="gradient_3" gradientUnits="userSpaceOnUse" x1="154.42838" y1="791.43896" x2="368.45261" y2="189.49677">
			<stop offset="0" stop-color="#084963"></stop>
			<stop offset="1" stop-color="#147ABE"></stop>
		</linearGradient>
	</defs>
	<path fill="url(#gradient_3)" transform="scale(1.41964 1.41964)" d="M234.036 130.329L234.099 131.448C229.68 135.272 217.839 142.659 215.567 147.153L215.688 147.663C217.086 147.643 219.025 147.148 220.152 146.245C220.701 145.804 220.525 145.737 220.925 145.237C222.099 143.771 225.38 143.686 227.14 143.591C227.914 142.899 229.862 140.796 230.837 140.785C234.423 140.742 240.041 146.566 242.279 149.251C246.299 154.074 250.561 165.088 255.392 168.215C258.411 170.169 278.903 192.238 281.534 195.979C284.178 199.739 285.675 203.955 288.045 207.728C289.004 209.255 291.263 211.123 291.598 212.841C291.998 214.89 291.97 217.075 292.187 219.158L290.815 218.621L290.355 219.378C290.312 219.237 290.288 219.088 290.225 218.954C289.863 218.186 289.345 217.942 288.687 217.446C283.444 213.486 275.166 205.409 271.68 199.881L270.62 199.603L270.229 198.394L267.978 197.376L267.724 196.399L267.487 197.185C268.247 198.031 268.915 198.808 269.849 199.468L269.428 199.728L270.404 200.11C273.319 203.826 276.677 207.949 280.348 210.916C284.612 214.361 286.651 220.194 290.476 224.032C298.437 232.02 304.994 228.547 309.65 242.257C310.601 245.057 311.737 248.403 311.938 251.355C311.993 252.161 311.907 253 311.837 253.803C312.216 254.538 312.561 255.366 313.038 256.039C235.19 323.216 184.612 415.092 177.074 518.403C169.927 616.346 205.498 710.516 269.319 784.256Q274.088 789.825 279.084 795.191Q284.079 800.558 289.292 805.714Q294.505 810.869 299.927 815.805Q305.349 820.741 310.97 825.448Q316.591 830.156 322.402 834.627Q328.212 839.098 334.203 843.325Q340.193 847.552 346.354 851.528Q352.514 855.504 358.833 859.222C369.463 865.488 380.49 870.876 391.339 876.726Q386.15 875.04 381.003 873.228Q375.857 871.415 370.757 869.476Q365.657 867.537 360.606 865.474Q355.555 863.41 350.556 861.223Q345.558 859.035 340.614 856.726Q335.671 854.416 330.786 851.986Q325.901 849.555 321.077 847.006Q316.253 844.456 311.494 841.788Q306.734 839.12 302.042 836.336Q297.349 833.552 292.726 830.654Q288.104 827.755 283.554 824.744Q279.004 821.733 274.529 818.61Q270.055 815.488 265.658 812.257Q261.262 809.025 256.946 805.687Q252.631 802.348 248.398 798.904Q244.166 795.461 240.02 791.914Q235.874 788.367 231.816 784.719Q227.758 781.072 223.792 777.325Q219.825 773.579 215.952 769.736Q212.078 765.893 208.3 761.956Q204.523 758.019 200.843 753.991Q197.163 749.962 193.583 745.844Q190.004 741.726 186.527 737.522Q183.05 733.317 179.677 729.028Q176.304 724.739 173.038 720.368Q169.772 715.998 166.614 711.548Q163.456 707.098 160.409 702.573Q157.361 698.047 154.426 693.447Q151.491 688.848 148.67 684.177Q145.849 679.507 143.144 674.769Q140.438 670.03 137.85 665.227Q135.262 660.424 132.793 655.558Q130.323 650.666 127.975 645.714Q125.627 640.763 123.402 635.755Q121.177 630.747 119.076 625.685Q116.975 620.624 114.999 615.512Q113.023 610.401 111.174 605.242Q109.325 600.083 107.604 594.88Q105.883 589.677 104.291 584.433Q102.699 579.19 101.236 573.908Q99.7736 568.627 98.4418 563.311Q97.11 557.995 95.9098 552.648Q94.7095 547.301 93.6415 541.926Q92.5734 536.551 91.6383 531.151Q90.7032 525.751 89.9015 520.33Q89.0998 514.909 88.4321 509.47Q87.7644 504.03 87.231 498.576Q86.6977 493.122 86.299 487.656Q85.9003 482.191 85.6366 476.717Q85.3728 471.243 85.2442 465.764Q85.1155 460.286 85.122 454.806Q85.1285 449.326 85.2701 443.847Q85.4118 438.369 85.6885 432.896Q85.9652 427.423 86.3768 421.958Q86.7885 416.493 87.3347 411.04Q87.881 405.588 88.5616 400.15Q89.2422 394.712 90.0567 389.293Q90.8712 383.874 91.8191 378.476Q92.767 373.078 93.8478 367.706Q94.9285 362.333 96.1415 356.989Q97.3544 351.645 98.6988 346.332Q100.043 341.019 101.518 335.742Q102.993 330.464 104.598 325.224Q106.203 319.984 107.936 314.785Q111.953 302.771 116.74 291.043C118.554 286.51 120.82 281.875 122.081 277.18Q119.827 281.106 117.652 285.077Q115.477 289.048 113.383 293.063Q111.289 297.077 109.277 301.132Q107.265 305.188 105.334 309.283Q103.404 313.379 101.557 317.512Q99.7103 321.646 97.9471 325.816Q96.184 329.986 94.5054 334.191Q92.8269 338.396 91.2336 342.634Q89.6403 346.872 88.133 351.141Q86.6256 355.41 85.2048 359.709Q83.784 364.008 82.4503 368.334Q81.1166 372.661 79.8706 377.013Q78.6246 381.366 77.4667 385.743Q76.3089 390.12 75.2397 394.519Q74.1705 398.919 73.1903 403.339Q72.2102 407.759 71.3195 412.198Q70.4289 416.637 69.6281 421.093Q68.8273 425.549 68.1167 430.02Q67.406 434.492 66.7858 438.977Q66.1657 443.461 65.6362 447.958Q65.1068 452.454 64.6682 456.96Q64.2297 461.467 63.8823 465.981Q63.5349 470.495 63.2787 475.015Q63.0225 479.535 62.8577 484.06Q62.6929 488.584 62.6195 493.111Q62.5461 497.638 62.5642 502.166Q62.5822 506.693 62.6917 511.219Q62.8012 515.745 63.0021 520.268Q63.2031 524.791 63.4953 529.309Q63.7875 533.827 64.1709 538.339Q64.5544 542.85 65.0288 547.352Q65.5033 551.855 66.0686 556.347C68.7916 578.477 73.4011 600.134 78.8754 621.73C78.8306 621.72 78.782 621.721 78.7411 621.7C78.4146 621.535 78.0475 621.421 77.7775 621.174C75.4666 619.059 68.199 578.084 67.1659 571.67C66.511 567.605 66.5383 560.963 64.8799 557.38C64.5017 556.563 64.034 556.677 63.2402 556.439C63.1254 554.104 64.914 552.216 64.3189 549.695C64.0103 550.008 63.8201 550.53 63.3932 550.633C62.5202 550.845 52.61 545.645 50.4012 544.94C45.5384 543.386 39.4244 543.088 34.5109 544.621C33.0579 545.074 31.5395 546.064 30.0115 546.122C29.4104 546.145 28.7065 546.07 28.0951 546.054L27.1381 546.024C26.0552 547.476 25.1157 549.007 24.1576 550.543L23.163 550.428L22.6515 551.269L22.6217 550.683C21.9422 554.378 22.158 558.275 22.1318 562.02C22.0976 566.908 21.8417 571.857 22.0165 576.736C22.2723 583.881 23.1488 591.2 22.4446 598.331C22.4255 598.525 22.4018 598.718 22.3804 598.911C21.131 592.31 21.2673 584.914 21.0226 578.201Q20.6073 565.749 20.759 553.291Q20.9107 540.833 21.6292 528.395Q22.3476 515.957 23.6313 503.565Q24.915 491.172 26.7613 478.851Q27.5501 473.668 28.4396 468.501Q29.3291 463.334 30.3189 458.186Q31.3087 453.037 32.3984 447.909Q33.4881 442.78 34.6773 437.674Q35.8665 432.568 37.1548 427.486Q38.443 422.404 39.8299 417.348Q41.2167 412.292 42.7017 407.263Q44.1866 402.235 45.769 397.237Q47.3513 392.239 49.0306 387.272Q50.7099 382.305 52.4855 377.372Q54.261 372.439 56.1321 367.542Q58.0033 362.644 59.9693 357.784Q61.9353 352.924 63.9954 348.102Q66.0555 343.281 68.209 338.501Q70.3625 333.721 72.6086 328.984Q74.8546 324.246 77.1923 319.553Q79.5301 314.861 81.9586 310.214Q84.3871 305.568 86.9056 300.969Q89.424 296.371 92.0313 291.822Q94.6387 287.274 97.334 282.777Q100.029 278.28 102.812 273.836Q105.594 269.393 108.462 265.004Q111.33 260.615 114.283 256.283Q117.236 251.951 120.273 247.677Q123.309 243.403 126.428 239.189Q129.547 234.975 132.748 230.822Q135.948 226.669 139.229 222.58Q142.51 218.49 145.869 214.465Q149.229 210.44 152.666 206.481Q156.103 202.522 159.616 198.631Q163.13 194.739 166.718 190.917Q170.307 187.095 173.969 183.343C192.534 164.278 212.607 146.131 234.036 130.329Z"></path>
	<path fill="#1B75BA" transform="scale(1.41964 1.41964)" d="M234.036 130.329C252.278 115.717 272.601 102.912 292.882 91.3425Q297.505 88.7133 302.18 86.1756Q306.854 83.6379 311.577 81.1926Q316.3 78.7474 321.071 76.3955Q325.841 74.0436 330.657 71.786Q335.472 69.5285 340.332 67.3661Q345.191 65.2037 350.092 63.1373Q354.993 61.0709 359.933 59.1014Q364.874 57.1318 369.852 55.2598Q374.83 53.3878 379.844 51.6142Q384.859 49.8405 389.907 48.1658Q394.955 46.4911 400.035 44.916Q405.115 43.341 410.225 41.8661Q415.335 40.3913 420.473 39.0173Q425.611 37.6434 430.776 36.3707Q435.94 35.0981 441.128 33.9273Q446.316 32.7565 451.526 31.688Q456.736 30.6194 461.967 29.6536Q467.197 28.6878 472.445 27.8251Q477.693 26.9624 482.958 26.2031Q488.222 25.4438 493.5 24.7882Q498.778 24.1326 504.068 23.581Q509.358 23.0294 514.658 22.5819Q519.957 22.1345 525.265 21.7914Q530.573 21.4483 535.886 21.2097Q541.199 20.9711 546.516 20.837Q551.833 20.703 557.152 20.6736Q562.47 20.6441 567.788 20.7194Q573.106 20.7946 578.422 20.9744Q583.738 21.1543 589.049 21.4387Q594.36 21.723 599.664 22.1118Q604.969 22.5006 610.264 22.9937Q615.56 23.4868 620.845 24.084Q627.051 24.7835 633.239 25.6274Q639.427 26.4713 645.593 27.4592Q651.76 28.447 657.902 29.5782Q664.044 30.7094 670.157 31.9834Q676.271 33.2573 682.354 34.6734Q688.436 36.0894 694.484 37.6468Q700.532 39.2042 706.542 40.902Q712.552 42.5998 718.521 44.4372Q724.49 46.2746 730.414 48.2505Q736.338 50.2264 742.215 52.3398Q748.092 54.4532 753.918 56.7029Q759.744 58.9526 765.516 61.3374Q771.288 63.7223 777.002 66.2409Q782.717 68.7595 788.372 71.4106Q794.026 74.0617 799.618 76.8437Q805.209 79.6258 810.734 82.5374C819.758 87.3467 832.217 92.4254 838.578 100.487C842.259 105.152 844.081 111.006 843.356 116.928C842.892 120.713 841.383 124.776 839.12 127.86C834.452 134.223 828.085 139.722 822.504 145.303L793.519 174.316L769.429 198.4C765.174 202.65 760.958 207.59 756.16 211.18C751.437 214.714 745.359 216.739 739.454 215.85C729.87 214.407 710.935 202.598 700.738 198.018C688.947 192.722 676.974 188.465 664.579 184.81C552.363 151.715 434.442 168.515 338.492 236.426Q325.385 245.739 313.038 256.039C312.561 255.366 312.216 254.538 311.837 253.803C311.907 253 311.993 252.161 311.938 251.355C311.737 248.403 310.601 245.057 309.65 242.257C304.994 228.547 298.437 232.02 290.476 224.032C286.651 220.194 284.612 214.361 280.348 210.916C276.677 207.949 273.319 203.826 270.404 200.11L269.428 199.728L269.849 199.468C268.915 198.808 268.247 198.031 267.487 197.185L267.724 196.399L267.978 197.376L270.229 198.394L270.62 199.603L271.68 199.881C275.166 205.409 283.444 213.486 288.687 217.446C289.345 217.942 289.863 218.186 290.225 218.954C290.288 219.088 290.312 219.237 290.355 219.378L290.815 218.621L292.187 219.158C291.97 217.075 291.998 214.89 291.598 212.841C291.263 211.123 289.004 209.255 288.045 207.728C285.675 203.955 284.178 199.739 281.534 195.979C278.903 192.238 258.411 170.169 255.392 168.215C250.561 165.088 246.299 154.074 242.279 149.251C240.041 146.566 234.423 140.742 230.837 140.785C229.862 140.796 227.914 142.899 227.14 143.591C225.38 143.686 222.099 143.771 220.925 145.237C220.525 145.737 220.701 145.804 220.152 146.245C219.025 147.148 217.086 147.643 215.688 147.663L215.567 147.153C217.839 142.659 229.68 135.272 234.099 131.448L234.036 130.329Z"></path>
	<defs>
		<linearGradient id="gradient_4" gradientUnits="userSpaceOnUse" x1="1037.4479" y1="813.31049" x2="75.987007" y2="419.41043">
			<stop offset="0" stop-color="#13293F"></stop>
			<stop offset="1" stop-color="#0A4F71"></stop>
		</linearGradient>
	</defs>
	<path fill="url(#gradient_4)" transform="scale(1.41964 1.41964)" d="M78.8754 621.73C105.511 715.463 152.414 794.537 229.164 855.787C322.746 930.47 446.224 961.941 564.623 948.431C640.549 939.768 711.092 911.917 773.714 868.417C803.378 847.811 829.528 825.421 852.083 797.035C882.404 758.873 902.005 715.984 916.519 669.697C936.867 604.807 945.992 535.615 930.343 468.671Q927.884 458.102 924.67 447.737Q921.456 437.372 917.505 427.266C915.393 421.868 913.242 416.437 910.789 411.184C907.227 403.557 900.953 394.448 900.178 385.978C899.611 379.781 901.223 373.38 905.321 368.622C910.927 362.112 917.478 356.136 923.553 350.051L956.611 316.97L979.038 294.565C983.618 289.994 988.322 284.477 993.712 280.901C996.764 278.875 1001.14 277.846 1004.76 277.64C1011.02 277.284 1017.38 279.443 1021.92 283.813C1029.62 291.218 1038.41 310.701 1043.31 320.631Q1046.72 327.542 1049.92 334.547Q1053.13 341.552 1056.14 348.645Q1059.15 355.738 1061.96 362.914Q1064.76 370.09 1067.36 377.343Q1069.96 384.595 1072.36 391.918Q1074.75 399.242 1076.93 406.63Q1079.12 414.019 1081.09 421.466Q1083.07 428.914 1084.83 436.414Q1086.59 443.915 1088.14 451.462Q1089.69 459.01 1091.02 466.598Q1092.36 474.187 1093.47 481.81Q1094.59 489.434 1095.49 497.085Q1096.39 504.737 1097.08 512.412Q1097.76 520.086 1098.22 527.777Q1098.69 535.468 1098.94 543.168Q1099.18 550.869 1099.21 558.574Q1099.23 565.082 1099.09 571.589Q1098.95 578.095 1098.66 584.597Q1098.36 591.098 1097.91 597.59Q1097.45 604.083 1096.84 610.562Q1096.23 617.042 1095.47 623.504Q1094.7 629.967 1093.78 636.41Q1092.86 642.852 1091.78 649.27Q1090.7 655.689 1089.47 662.079Q1088.24 668.469 1086.85 674.828Q1085.47 681.187 1083.93 687.51Q1082.39 693.834 1080.69 700.118Q1079 706.402 1077.16 712.644Q1075.32 718.885 1073.32 725.081Q1071.33 731.276 1069.19 737.421Q1067.04 743.566 1064.75 749.658Q1062.46 755.749 1060.02 761.784Q1057.59 767.818 1055 773.792Q1052.42 779.766 1049.7 785.676Q1046.97 791.585 1044.1 797.427Q1041.23 803.27 1038.23 809.041Q1035.22 814.812 1032.07 820.508Q1028.92 826.205 1025.64 831.824Q1022.36 837.443 1018.94 842.981Q1015.52 848.518 1011.97 853.972Q1008.42 859.426 1004.73 864.792Q1001.05 870.158 997.241 875.434Q993.43 880.71 989.492 885.892Q985.555 891.074 981.494 896.159Q977.433 901.245 973.25 906.23Q969.067 911.216 964.765 916.099Q960.462 920.983 956.043 925.76Q951.624 930.538 947.091 935.208Q942.413 940.042 937.616 944.758Q932.819 949.473 927.905 954.067Q922.992 958.662 917.965 963.132Q912.938 967.602 907.801 971.945Q902.664 976.288 897.421 980.502Q892.177 984.715 886.83 988.796Q881.482 992.877 876.035 996.823Q870.587 1000.77 865.042 1004.58Q859.498 1008.39 853.86 1012.06Q848.222 1015.73 842.494 1019.25Q836.766 1022.78 830.952 1026.16Q825.138 1029.55 819.241 1032.78Q813.344 1036.02 807.368 1039.11Q801.392 1042.2 795.341 1045.13Q789.289 1048.07 783.167 1050.86Q777.044 1053.64 770.854 1056.28Q764.663 1058.91 758.409 1061.39Q752.155 1063.86 745.841 1066.18Q739.526 1068.5 733.156 1070.66Q726.786 1072.82 720.364 1074.83Q713.942 1076.83 707.472 1078.67Q701.001 1080.51 694.487 1082.19Q687.973 1083.86 681.419 1085.38Q674.865 1086.89 668.275 1088.25Q661.685 1089.6 655.064 1090.78Q648.443 1091.97 641.793 1092.99Q635.144 1094.01 628.472 1094.86Q621.8 1095.71 615.108 1096.4Q608.416 1097.09 601.709 1097.61Q595.003 1098.12 588.285 1098.48Q581.567 1098.83 574.843 1099.01Q568.119 1099.19 561.392 1099.21Q554.797 1099.23 548.203 1099.09Q541.61 1098.94 535.022 1098.64Q528.433 1098.34 521.855 1097.87Q515.276 1097.41 508.711 1096.78Q502.145 1096.16 495.597 1095.37Q489.049 1094.58 482.522 1093.64Q475.995 1092.69 469.493 1091.59Q462.991 1090.48 456.519 1089.22Q450.046 1087.95 443.606 1086.53Q437.166 1085.11 430.763 1083.53Q424.359 1081.95 417.997 1080.21Q411.634 1078.48 405.316 1076.59Q398.997 1074.7 392.727 1072.65Q386.457 1070.61 380.239 1068.41Q374.021 1066.21 367.858 1063.86Q361.695 1061.52 355.592 1059.02Q349.489 1056.52 343.448 1053.87Q337.408 1051.22 331.434 1048.43Q325.46 1045.63 319.557 1042.69Q313.653 1039.75 307.823 1036.67Q301.993 1033.59 296.241 1030.36Q290.488 1027.14 284.816 1023.77Q279.144 1020.41 273.556 1016.9Q267.968 1013.4 262.467 1009.76Q256.966 1006.12 251.556 1002.35Q246.146 998.58 240.83 994.677Q235.514 990.774 230.295 986.742Q225.076 982.71 219.957 978.551Q214.838 974.392 209.823 970.11Q204.807 965.827 199.898 961.423Q194.989 957.019 190.189 952.497Q185.389 947.974 180.701 943.335Q177.108 939.786 173.581 936.17Q170.055 932.554 166.598 928.872Q163.14 925.19 159.752 921.444Q156.364 917.698 153.048 913.889Q149.731 910.08 146.486 906.21Q143.241 902.339 140.07 898.408Q136.898 894.478 133.801 890.488Q130.704 886.498 127.683 882.451Q124.661 878.404 121.716 874.3Q118.771 870.197 115.903 866.039Q113.036 861.882 110.247 857.671Q107.458 853.46 104.749 849.197Q102.04 844.934 99.4113 840.622Q96.7827 836.309 94.2355 831.948Q91.6882 827.586 89.2234 823.178Q86.7586 818.769 84.377 814.315Q81.9954 809.861 79.6979 805.363Q77.4004 800.866 75.1878 796.325Q72.9752 791.785 70.8483 787.204Q68.7214 782.623 66.6809 778.003Q64.6404 773.382 62.687 768.725Q60.7337 764.067 58.8681 759.374Q57.0026 754.68 55.2256 749.952Q53.4486 745.224 51.7607 740.464Q50.0727 735.704 48.4746 730.913Q46.8764 726.121 45.3685 721.301Q43.8606 716.481 42.4435 711.633Q41.0264 706.785 39.7006 701.911Q38.3748 697.038 37.1408 692.14Q35.9068 687.242 34.765 682.322Q33.6232 677.402 32.5741 672.462Q31.5249 667.521 30.5687 662.562C26.7046 642.525 22.5421 619.289 22.3804 598.911C22.4018 598.718 22.4255 598.525 22.4446 598.331C23.1488 591.2 22.2723 583.881 22.0165 576.736C21.8417 571.857 22.0976 566.908 22.1318 562.02C22.158 558.275 21.9422 554.378 22.6217 550.683L22.6515 551.269L23.163 550.428L24.1576 550.543C25.1157 549.007 26.0552 547.476 27.1381 546.024L28.0951 546.054C28.7065 546.07 29.4104 546.145 30.0115 546.122C31.5395 546.064 33.0579 545.074 34.5109 544.621C39.4244 543.088 45.5384 543.386 50.4012 544.94C52.61 545.645 62.5202 550.845 63.3932 550.633C63.8201 550.53 64.0103 550.008 64.3189 549.695C64.914 552.216 63.1254 554.104 63.2402 556.439C64.034 556.677 64.5017 556.563 64.8799 557.38C66.5383 560.963 66.511 567.605 67.1659 571.67C68.199 578.084 75.4666 619.059 77.7775 621.174C78.0475 621.421 78.4146 621.535 78.7411 621.7C78.782 621.721 78.8306 621.72 78.8754 621.73Z"></path>
</svg></svg></g></g></svg></g></svg>